<?xml version="1.0" encoding="UTF-8"?>
<svg xmlns="http://www.w3.org/2000/svg" viewBox="0 0 1803.02 1804.48">
  <defs>
    <style>
      .cls-1, .cls-2 {
        fill: #8d674c;
      }

      .cls-3 {
        fill: #86bd31;
        opacity: .49;
      }

      .cls-4 {
        fill: none;
      }

      .cls-5 {
        fill: #865a15;
      }

      .cls-6 {
        isolation: isolate;
      }

      .cls-7 {
        fill: #95c124;
      }

      .cls-8 {
        fill: #8fc045;
      }

      .cls-9 {
        fill: #e7e8e9;
      }

      .cls-9, .cls-2 {
        mix-blend-mode: multiply;
      }

      .cls-2 {
        opacity: .57;
      }

      .cls-10 {
        fill: #76a534;
      }

      .cls-11 {
        fill: #6f4a32;
      }
    </style>
  </defs>
  <g class="cls-6">
    <g id="Layer_2" data-name="Layer 2">
      <g id="Layer_2-2" data-name="Layer 2">
        <g>
          <path class="cls-7" d="M1778.87,893.68c-10.29-17.68-23.79-34.92-40.28-51.45-213.4-213.94-933.51-302.95-1692.86,337.62.24.73.5,1.46.74,2.19,153.28-88.86,450.65-208.47,818.3-93.05,364.56,114.44,658.54,140.35,814.99,69.79,12.54-5.66,24.34-11.84,35.07-18.74,41.5-27.66,71.31-70.03,81.91-119.17,1.76-13.31,3.26-26.69,4.43-40.17-.19-31.37-8.26-60.9-22.3-87.02Z"/>
          <path class="cls-3" d="M901.51,0c-44.26,0-87.76,3.21-130.31,9.37,17.36,17.45,28.09,41.5,28.09,68.05,0,53.3-43.2,96.5-96.5,96.5s-96.5-43.2-96.5-96.5c0-10.31,1.62-20.23,4.61-29.54C371.55,129.33,177.46,308.62,76.26,538.09c16.31,2.5,28.8,16.59,28.8,33.6,0,18.78-15.22,34-34,34-7.16,0-13.81-2.22-19.29-6.01C18.26,694.05,0,795.65,0,901.51c0,97.08,15.53,190.49,43.92,278.11,759.35-640.57,1479.46-551.56,1692.86-337.62,16.49,16.53,29.99,33.77,40.28,51.45,14.04,26.12,22.11,55.65,22.3,87.02,2.26-26.04,3.65-52.33,3.65-78.95C1803.02,403.62,1399.4,0,901.51,0ZM168.79,891.92c-26.23,0-47.5-21.27-47.5-47.5s21.27-47.5,47.5-47.5,47.5,21.27,47.5,47.5-21.27,47.5-47.5,47.5ZM271.29,462.92c-18.78,0-34-15.22-34-34s15.22-34,34-34,34,15.22,34,34-15.22,34-34,34ZM382.79,765.92c-45.56,0-82.5-36.94-82.5-82.5s36.94-82.5,82.5-82.5,82.5,36.94,82.5,82.5-36.94,82.5-82.5,82.5ZM458.29,269.92c0-32.03,25.97-58,58-58s58,25.97,58,58-25.97,58-58,58-58-25.97-58-58ZM560.29,537.92c-33.69,0-61-27.31-61-61s27.31-61,61-61,61,27.31,61,61-27.31,61-61,61Z"/>
          <g>
            <circle class="cls-10" cx="1372.13" cy="659.25" r="275.69"/>
            <path class="cls-9" d="M1537.08,438.73c34.49,46.03,55.17,103.01,55.17,164.95,0,152.26-123.43,275.69-275.69,275.69-61.94,0-118.92-20.68-164.95-55.17,50.29,67.11,130.21,110.74,220.52,110.74,152.26,0,275.69-123.43,275.69-275.69,0-90.31-43.62-170.24-110.74-220.52Z"/>
            <circle class="cls-8" cx="1163.46" cy="620.29" r="223.69" transform="translate(-97.84 1004.37) rotate(-45)"/>
            <path class="cls-9" d="M1299.94,443.34c29.19,37.79,46.73,85.03,46.73,136.48,0,123.54-100.15,223.69-223.69,223.69-51.44,0-98.69-17.55-136.48-46.73,40.91,52.96,104.86,87.21,176.96,87.21,123.54,0,223.69-100.15,223.69-223.69,0-72.1-34.25-136.05-87.21-176.96Z"/>
            <path class="cls-5" d="M1116.54,721.43c19.43,28.31,41.57,54.96,65.95,79.53l31.63,35.75c8.94,12.98,17.97,25.76,26.18,38.91,31.09,54.12,46.43,115.24,50,176.75.99,30.96-.12,61.9-4.04,92.57-2.28,15.31-4.74,30.5-8.03,45.48-1.71,7.42-3.49,14.87-5.41,22.1-.57,2.07-1.18,4.23-1.8,6.38h102.99c.51-4.73,1.11-9.49,1.55-14.21,1.53-18.1,2.09-36.17,2.34-54.18-.13-36.08-3.53-72.05-9.47-107.55-3.56-18.81-8.19-37.47-13.79-55.84,1.34-21.34,9.32-44.65,21.18-67.96,13.01-25.98,30.37-52.31,44.84-81.28,14.33-28.71,26.29-61.31,25.05-94.69-.77-32.51-13.8-66.28-39.96-84.03,22.14,22.42,27.06,54.77,22.5,83.02-4.45,28.7-19.58,53.92-37.36,77.34-17.9,23.55-39.25,45.43-59.34,71.49-3.51,4.59-6.98,9.39-10.41,14.3-10.88-20.73-23.22-40.63-37.43-59.15-10.07-12.33-20.79-24.09-31.43-35.72-1.89-30.19,2.18-61.23,12.13-90.83,6.29-19.82,16.52-38.47,25.22-58.7,8.48-19.85,14.55-43.08,7.55-63.95,3.97,21.59-4.76,42.14-15.37,60.04-10.8,18.03-23.93,35.73-33.56,55.94-11.21,22.64-19.11,47.23-23.43,72.69l-16.24-14.13c-25.58-19.8-49.48-41.89-71.29-66.13-21.76-24.27-41.11-50.96-57.09-79.78-15.83-28.82-29.34-59.56-35.97-92.39,2.29,33.51,11.78,66.4,24.11,98,12.48,31.63,28.84,61.91,48.23,90.26Z"/>
          </g>
          <g>
            <path class="cls-4" d="M1737.76,1237.1c27.14-67.98,46.25-140.04,56.16-215-.61,2.83-1.29,5.63-2.03,8.42-9.86,71.87-28.25,141.09-54.13,206.58Z"/>
            <path class="cls-4" d="M592.18,1750.33c-.75-.28-1.5-.55-2.25-.83-1.11-.41-2.22-.83-3.32-1.24-1.05-.4-2.1-.79-3.15-1.19-.51-.19-1.01-.39-1.51-.58-.59-.23-1.19-.45-1.78-.68-1.09-.42-2.17-.83-3.26-1.26-.75-.29-1.51-.59-2.26-.89-.62-.24-1.23-.48-1.85-.73-1.05-.42-2.1-.83-3.15-1.25-1.15-.46-2.3-.92-3.46-1.39-2.09-.84-4.17-1.7-6.26-2.56-1.28-.53-2.57-1.06-3.85-1.6-.14-.06-.28-.12-.42-.18-.63-.26-1.26-.53-1.89-.8-1.4-.59-2.79-1.18-4.19-1.78-1.16-.5-2.32-.99-3.47-1.49-.29-.13-.58-.25-.88-.38-1.76-.76-3.52-1.54-5.28-2.31-1.15-.51-2.31-1.02-3.46-1.53-.41-.18-.81-.37-1.22-.55-1.83-.82-3.66-1.65-5.49-2.48-1.23-.56-2.46-1.13-3.69-1.7-1.96-.9-3.91-1.82-5.86-2.73-1.57-.74-3.13-1.48-4.69-2.23-1.77-.85-3.54-1.7-5.3-2.55-1.27-.62-2.54-1.24-3.81-1.86-1.88-.93-3.77-1.86-5.64-2.8-.12-.06-.25-.12-.38-.19-.2-.1-.41-.2-.61-.3-1.34-.67-2.68-1.35-4.01-2.03-1.47-.75-2.94-1.5-4.4-2.25-.28-.14-.56-.29-.84-.43-1.17-.6-2.34-1.21-3.5-1.82-1.33-.69-2.65-1.4-3.98-2.1-.56-.3-1.12-.59-1.69-.89-1.68-.89-3.36-1.79-5.03-2.7-1.05-.57-2.11-1.14-3.16-1.71-.03-.02-.07-.04-.1-.06-.37-.2-.74-.41-1.11-.61-1.35-.74-2.7-1.48-4.04-2.22-.89-.49-1.78-.99-2.67-1.49-.62-.35-1.25-.7-1.87-1.05-.19-.11-.38-.21-.57-.32-1.86-1.04-3.71-2.1-5.56-3.15-.26-.15-.52-.3-.79-.45-.36-.2-.71-.41-1.07-.61-.71-.41-1.43-.82-2.14-1.24-1.39-.8-2.78-1.61-4.16-2.42-.53-.31-1.05-.62-1.58-.93-.53-.31-1.06-.63-1.59-.94-.54-.32-1.08-.64-1.62-.96-1.75-1.04-3.51-2.09-5.25-3.14-.46-.28-.91-.55-1.37-.83-.95-.58-1.91-1.16-2.86-1.74-1.43-.87-2.85-1.74-4.27-2.62-.21-.13-.42-.26-.63-.39-.13-.08-.27-.17-.4-.25-1.12-.69-2.24-1.39-3.35-2.09-1.58-.99-3.15-1.98-4.72-2.97-.15-.1-.31-.2-.46-.3-.33-.21-.66-.43-1-.64-1.1-.7-2.21-1.41-3.31-2.12-1.46-.94-2.91-1.88-4.36-2.82-1.24-.81-2.48-1.63-3.72-2.45-2.26-1.49-4.52-2.99-6.76-4.5-.99-.67-1.98-1.34-2.97-2.01-1.5-1.02-2.99-2.03-4.48-3.05-.64-.44-1.28-.89-1.92-1.33-2.83-1.95-5.64-3.92-8.44-5.9-.89-.63-1.78-1.26-2.67-1.89-.41-.29-.82-.58-1.23-.87-.06-.04-.12-.09-.19-.13-2.4-1.72-4.79-3.45-7.17-5.2-.39-.28-.78-.57-1.17-.85-1.69-1.24-3.38-2.49-5.07-3.75-.67-.5-1.34-1-2.01-1.5-.39-.29-.78-.58-1.17-.88-2.13-1.6-4.26-3.22-6.38-4.84-.59-.45-1.18-.9-1.77-1.36-1.95-1.5-3.89-3.01-5.83-4.52-.36-.28-.72-.56-1.08-.85-.38-.3-.76-.6-1.14-.9-2.06-1.62-4.12-3.25-6.16-4.9-.59-.47-1.17-.94-1.76-1.41-2.07-1.67-4.13-3.34-6.19-5.03-.33-.27-.67-.55-1-.82-.44-.37-.89-.73-1.33-1.1-1.86-1.54-3.71-3.08-5.56-4.63-.41-.35-.82-.7-1.24-1.04-2.21-1.86-4.41-3.73-6.6-5.61-.03-.03-.07-.06-.1-.08,0,0,0,0,0,0-.39-.33-.77-.67-1.16-1-.52-.45-1.04-.9-1.56-1.35-4.9-4.25-9.76-8.55-14.57-12.9-.43-.39-.86-.78-1.29-1.17-4.88-4.43-9.71-8.92-14.49-13.46-.33-.32-.66-.63-1-.95-4.86-4.62-9.66-9.3-14.41-14.03-.24-.24-.48-.48-.72-.72-3.17-3.16-6.32-6.35-9.45-9.56-.02-.02-.05-.05-.07-.07-1.61-1.65-3.21-3.31-4.81-4.98-.14-.15-.28-.3-.43-.45-3.17-3.31-6.31-6.64-9.42-10-.01-.02-.03-.03-.04-.05-1.6-1.73-3.19-3.46-4.78-5.19-.04-.04-.07-.08-.11-.12-3.15-3.45-6.28-6.93-9.38-10.43-.03-.03-.05-.06-.08-.09-4.68-5.29-9.3-10.64-13.86-16.04-.04-.04-.07-.09-.11-.13-4.55-5.39-9.03-10.84-13.46-16.34-.04-.06-.09-.11-.13-.17-4.42-5.49-8.77-11.04-13.06-16.64-.05-.06-.1-.13-.15-.19-4.28-5.6-8.5-11.24-12.65-16.94-.05-.07-.1-.14-.16-.21-4.14-5.69-8.22-11.42-12.23-17.21-.06-.09-.13-.18-.19-.28-4-5.77-7.93-11.6-11.79-17.47-.07-.11-.14-.21-.21-.32-3.85-5.86-7.64-11.77-11.36-17.72-.04-.07-.08-.13-.13-.2h0c-38.83-62.21-70.28-129.55-93.08-200.82-1.1.63-2.2,1.27-3.29,1.9,86.63,264.95,292.58,475.92,554.41,569.2-1.58-.57-3.16-1.15-4.73-1.73-.38-.14-.77-.28-1.15-.42Z"/>
            <path class="cls-11" d="M520.25,1720.21c-1.57-.74-3.13-1.48-4.69-2.23,1.56.75,3.12,1.49,4.69,2.23Z"/>
            <path class="cls-11" d="M539.96,1729.2c-1.08-.47-2.15-.95-3.22-1.43-.08-.03-.16-.07-.23-.1,1.15.51,2.3,1.02,3.46,1.53Z"/>
            <path class="cls-11" d="M253.73,1528.39c1.6,1.67,3.2,3.33,4.81,4.98-1.61-1.65-3.21-3.31-4.81-4.98Z"/>
            <path class="cls-11" d="M580.16,1745.8c-1.09-.42-2.17-.83-3.26-1.26,1.08.42,2.17.84,3.26,1.26Z"/>
            <path class="cls-11" d="M510.26,1715.43c-.17-.08-.33-.16-.5-.25-.62-.3-1.24-.6-1.86-.91-.48-.24-.97-.47-1.45-.71,1.27.62,2.54,1.24,3.81,1.86Z"/>
            <path class="cls-11" d="M529.8,1724.64c-.55-.25-1.09-.5-1.64-.75-.59-.27-1.17-.54-1.76-.81-.1-.05-.2-.09-.3-.14,1.23.57,2.46,1.13,3.69,1.7Z"/>
            <path class="cls-11" d="M569.65,1741.68c-1.15-.46-2.3-.92-3.46-1.39,1.15.46,2.3.93,3.46,1.39Z"/>
            <path class="cls-11" d="M559.94,1737.73c-1.28-.53-2.57-1.06-3.85-1.6,1.28.54,2.56,1.07,3.85,1.6Z"/>
            <path class="cls-11" d="M371.63,1631.78s-.05-.04-.08-.06c-1.67-1.22-3.33-2.45-4.99-3.69,1.69,1.25,3.37,2.51,5.07,3.75Z"/>
            <path class="cls-11" d="M490.57,1705.55c-.21-.11-.43-.23-.64-.34-.95-.49-1.91-.99-2.86-1.48,1.17.61,2.33,1.22,3.5,1.82Z"/>
            <path class="cls-11" d="M549.59,1733.39c-1.09-.47-2.19-.94-3.28-1.41-.06-.03-.13-.06-.2-.08,1.16.5,2.32,1,3.47,1.49Z"/>
            <path class="cls-11" d="M151.71,1400.43c3.87,5.87,7.8,11.7,11.79,17.47-4-5.77-7.93-11.6-11.79-17.47Z"/>
            <path class="cls-11" d="M188.87,1452.74c4.29,5.6,8.64,11.15,13.06,16.64-4.42-5.49-8.77-11.04-13.06-16.64Z"/>
            <path class="cls-11" d="M202.06,1469.55c4.42,5.5,8.91,10.95,13.46,16.34-4.55-5.39-9.03-10.84-13.46-16.34Z"/>
            <path class="cls-11" d="M500.81,1710.76c-.05-.03-.11-.05-.16-.08-.07-.04-.14-.07-.21-.1.12.06.25.12.38.19Z"/>
            <path class="cls-11" d="M176.08,1435.6c4.15,5.7,8.37,11.35,12.65,16.94-4.28-5.6-8.5-11.24-12.65-16.94Z"/>
            <path class="cls-11" d="M163.7,1418.18c4.01,5.79,8.08,11.52,12.23,17.21-4.14-5.69-8.22-11.42-12.23-17.21Z"/>
            <path class="cls-11" d="M589.93,1749.49c-1.11-.41-2.22-.83-3.32-1.24,1.11.42,2.21.83,3.32,1.24Z"/>
            <path class="cls-11" d="M499.82,1710.27c-.06-.03-.12-.06-.19-.1-1.28-.64-2.55-1.29-3.82-1.94,1.34.68,2.67,1.36,4.01,2.03Z"/>
            <path class="cls-11" d="M481.4,1700.75s-.04-.02-.06-.03c-1.66-.88-3.32-1.77-4.97-2.67,1.67.9,3.35,1.8,5.03,2.7Z"/>
            <path class="cls-11" d="M299.96,1573.32c4.81,4.35,9.67,8.65,14.57,12.9-4.9-4.25-9.76-8.55-14.57-12.9Z"/>
            <path class="cls-11" d="M426.21,1668.83c-1.29-.81-2.59-1.62-3.88-2.44-.28-.18-.57-.35-.85-.53,1.57,1,3.15,1.99,4.72,2.97Z"/>
            <path class="cls-11" d="M363.38,1625.66c-.27-.21-.55-.42-.82-.62-1.76-1.33-3.52-2.66-5.28-4.01-.09-.07-.19-.14-.28-.21,2.12,1.62,4.25,3.24,6.38,4.84Z"/>
            <path class="cls-11" d="M239.06,1512.7c1.59,1.74,3.18,3.47,4.78,5.19-1.6-1.73-3.19-3.46-4.78-5.19Z"/>
            <path class="cls-11" d="M381.38,1638.84c-.13-.09-.25-.18-.38-.27-.28-.2-.57-.4-.85-.6.41.29.82.58,1.23.87Z"/>
            <path class="cls-11" d="M355.23,1619.46s-.07-.06-.11-.08c-1.91-1.47-3.82-2.95-5.72-4.44,1.94,1.52,3.88,3.02,5.83,4.52Z"/>
            <path class="cls-11" d="M434.86,1674.19c-1.43-.87-2.85-1.74-4.27-2.62,1.42.88,2.85,1.75,4.27,2.62Z"/>
            <path class="cls-11" d="M243.88,1517.94c3.11,3.36,6.26,6.69,9.42,10-3.17-3.31-6.31-6.64-9.42-10Z"/>
            <path class="cls-11" d="M444.34,1679.9c-1.61-.95-3.21-1.91-4.81-2.88-.15-.09-.3-.18-.44-.26,1.75,1.05,3.5,2.1,5.25,3.14Z"/>
            <path class="cls-11" d="M408.63,1657.53c-1.14-.75-2.28-1.5-3.41-2.26-.58-.39-1.16-.78-1.74-1.17-.54-.36-1.07-.72-1.61-1.08,2.25,1.51,4.5,3.01,6.76,4.5Z"/>
            <path class="cls-11" d="M268.77,1543.72c4.75,4.73,9.56,9.41,14.41,14.03-4.86-4.62-9.66-9.3-14.41-14.03Z"/>
            <path class="cls-11" d="M421.02,1665.56c-.22-.14-.44-.28-.65-.42-.11-.07-.23-.15-.34-.22.33.21.66.43,1,.64Z"/>
            <path class="cls-11" d="M392.49,1646.63c-1.4-.97-2.8-1.93-4.19-2.91-.26-.18-.52-.37-.79-.55-1.16-.81-2.31-1.62-3.46-2.44,2.8,1.98,5.62,3.95,8.44,5.9Z"/>
            <path class="cls-11" d="M398.89,1651.02c-.45-.3-.89-.61-1.34-.91-.65-.44-1.3-.88-1.94-1.32-.4-.27-.8-.55-1.2-.82,1.49,1.02,2.99,2.04,4.48,3.05Z"/>
            <path class="cls-11" d="M416.72,1662.8c-.93-.6-1.87-1.21-2.8-1.81-.4-.26-.81-.52-1.22-.79-.12-.08-.23-.15-.35-.23,1.45.95,2.91,1.89,4.36,2.82Z"/>
            <path class="cls-11" d="M284.18,1558.7c4.78,4.54,9.61,9.02,14.49,13.46-4.88-4.43-9.71-8.92-14.49-13.46Z"/>
            <path class="cls-11" d="M215.63,1486.02c4.56,5.4,9.18,10.75,13.86,16.04-4.68-5.29-9.3-10.64-13.86-16.04Z"/>
            <path class="cls-11" d="M472,1695.67c-1.35-.74-2.7-1.48-4.04-2.22,1.35.75,2.69,1.49,4.04,2.22Z"/>
            <path class="cls-11" d="M317.27,1588.58c-.39-.34-.79-.67-1.18-1.01.39.33.77.67,1.16,1,0,0,.01,0,.02,0Z"/>
            <path class="cls-11" d="M323.94,1594.26c-.22-.18-.43-.37-.65-.55-1.51-1.28-3.02-2.56-4.52-3.85-.47-.41-.95-.81-1.43-1.21,2.19,1.88,4.39,3.75,6.6,5.61Z"/>
            <path class="cls-11" d="M140.14,1382.4c3.72,5.95,7.51,11.86,11.36,17.72-3.85-5.86-7.64-11.77-11.36-17.72Z"/>
            <path class="cls-11" d="M1712.01,1141.27c-10.74,6.9-22.53,13.08-35.07,18.74-46.19,20.83-104.37,33.25-172.82,37.47-5.77,9.99-19.15,16.63-32.13,17.91-10.14,1-20.03-1.27-25.82-7.76-2.19-2.46-3.92-5.4-5.21-8.56-155.55-1.25-353.81-38.15-579.01-108.84-.28-.09-.56-.17-.83-.26,3.6,4.15,5.98,9.5,6.77,14.93,1.25,8.56-1.85,18.35-11.74,19.14-3.66.29-7.04-.69-10.09-2.39-8.3.18-15.47-6.33-18.83-13.4-2.77-5.83-2.21-13.27,2.14-18.21,2.64-2.99,5.86-5.44,9.54-6.76-354.42-102.7-641,11.33-791.97,98.1,22.8,71.27,54.25,138.61,93.08,200.82,36.27,1.5,72.51,3.41,108.4,9.08,57.76,9.14,109.92,33.9,164.83,52.56,24.62,8.36,49.84,14.99,75.75,17.69,30,3.12,59.7-.24,89.42-4.53,15.83-2.28,31.58-4.97,47.3-7.86,1.63-1.71,3.69-3.12,6.03-3.34,1.84-.17,3.2.42,4.24,1.41,42.88-8.14,85.53-17.57,128.63-24.52,32.17-5.19,64.64-8.94,97.24-9.66,32.98-.73,65.73,2.8,98.25,7.96,60.89,9.67,121.55,24.53,183.57,23.95,58.42-.55,114.83-16.66,170.23-33.74,56.85-17.53,115.32-37.35,175.34-39.13,63.07-1.87,125.52-3.41,188.09-11.86,23.12-39.23,43.36-80.36,60.43-123.11,25.88-65.49,44.27-134.71,54.13-206.58-12.05,45.55-40.77,84.68-79.88,110.75ZM128.2,1169.88c-.19-10.49,2.85-22.28,9.63-30.46,7.4-8.94,20.46-12.44,34.02-11.61,24.6,1.52,50.85,17.34,47.93,41-3.12,25.23-25.65,44.92-50.41,48-29.61,3.69-41.25-21.23-41.18-46.93ZM236.43,1339.39c-10.83,10.98-39.05,20.63-50.64,5.63-8.23-10.65-2.69-26.5,5.53-35.36,4.84-5.22,11.71-9.04,18.98-9.01.35,0,.68.06,1.02.09,6.44-2.16,13.79-1.75,20.73,2.33,13.72,8.08,15.47,25.1,4.39,36.32ZM272.66,1242.65c-1.48,5.09-6.68,9.32-11.8,10.28-2.11.4-5.04.51-6.89-.89-1.18-.89-2.02-2.04-2.5-3.44-.35-1-.31-2.09-.09-3.16-.08-.58-.14-1.17-.17-1.75-.13-2.29.88-4.33,1.81-6.34.76-1.33,1.73-2.47,2.93-3.39,1.11-1.13,2.4-2,3.88-2.64,1.75-.73,3.59-1.21,5.49-1.27,2.05-.07,4.04.68,5.51,2.07.95.71,1.57,1.68,1.84,2.88.03.33.07.65.1.98.09.27.18.54.22.83.35,2.15.28,3.76-.32,5.84ZM406.17,1394.33c-.83,7.66-6.47,15.31-14.84,15.33-3.89,0-7.28-1.97-9.9-4.72-2.96-3.11-3.5-7.95-1.83-11.81,2.02-4.69,6.54-9.1,11.95-9.18,1.95-1.18,4.12-1.9,6.52-1.8,6.46.28,8.72,6.58,8.11,12.19ZM406.15,1291.5c-8.28.15-2.64-11.05,3.6-11.16,8.28-.15,2.64,11.04-3.6,11.16ZM447.07,1097.25c-7.95,9.5-22.44,15.29-34.59,11.41-11.03-3.53-19.44-15.87-18.22-27.55,1.3-12.42,13.39-21.14,25.36-21.39.39,0,.78.04,1.17.05,8.57-2.7,18.23-2.52,25.12,3,11.23,8.99,9.69,24.28,1.15,34.48ZM519.75,1068.14c10.54-.19,3.36,14.06-4.58,14.2-10.53.19-3.36-14.06,4.58-14.2ZM548.2,1356.69c-.56,1.83-1.18,3.73-1.91,5.56-2.4,5.96-6.12,11.16-13.69,10.73-5.57-.32-10.56-3.66-14.44-7.67-8.84-9.16-7.6-25.3,7.93-24.65,1.9-.31,3.81-.56,5.77-.54,7.63.07,19.14,7.51,16.35,16.57ZM661.75,1207.85c-13.52,1.33-26.7-1.69-34.42-10.35-7.08-7.93-10.55-19.6-10.74-30.09-1.01-25.68,9.7-51.01,39.43-48.41,24.86,2.17,48.09,21.03,52.13,46.12,3.79,23.53-21.86,40.31-46.39,42.73ZM766.43,1363.25c-6.69,5.77-16.33,6.3-24.99,3.92-.39.02-.77.09-1.17.09-11.97.19-24.38-8.08-26.13-20.44-1.65-11.62,6.3-24.26,17.2-28.19,12-4.33,26.69.93,34.98,10.13,8.9,9.88,11,25.1.11,34.5ZM930.48,1352.85c-7.94.15-15.63-13.83-5.09-14.03,7.94-.15,15.63,13.83,5.09,14.03ZM1032.51,1177.58c-1.56,12.61-12.82,22.46-25.2,24-14.81,1.84-20.62-10.62-20.59-23.47-.1-5.24,1.42-11.14,4.82-15.23,3.7-4.47,10.23-6.22,17.01-5.8,12.3.76,25.43,8.67,23.96,20.5ZM1094.52,1323.65c-10.83,10.98-39.05,20.63-50.64,5.63-8.23-10.65-2.69-26.5,5.53-35.36,4.84-5.22,11.71-9.04,18.97-9.01.35,0,.68.06,1.02.09,6.44-2.16,13.79-1.75,20.73,2.33,13.72,8.08,15.47,25.1,4.39,36.32ZM1130.75,1226.92c-1.48,5.09-6.68,9.32-11.8,10.28-2.11.4-5.04.51-6.89-.89-1.18-.89-2.02-2.04-2.5-3.44-.35-1-.31-2.09-.09-3.16-.08-.58-.14-1.17-.17-1.75-.13-2.29.88-4.33,1.81-6.34.76-1.33,1.73-2.47,2.93-3.39,1.11-1.13,2.41-2,3.88-2.64,1.75-.73,3.59-1.21,5.49-1.27,2.06-.07,4.05.68,5.51,2.07.95.71,1.57,1.68,1.84,2.88.03.33.07.65.1.98.09.27.18.54.22.83.35,2.15.28,3.76-.32,5.84ZM1264.27,1378.6c-.83,7.66-6.47,15.31-14.84,15.33-3.9,0-7.28-1.97-9.9-4.72-2.95-3.11-3.5-7.95-1.83-11.81,2.02-4.69,6.54-9.1,11.95-9.18,1.95-1.18,4.12-1.9,6.52-1.8,6.46.28,8.72,6.58,8.11,12.19ZM1264.25,1275.76c-8.28.15-2.64-11.04,3.6-11.16,8.28-.15,2.64,11.05-3.6,11.16ZM1406.29,1340.95c-.56,1.83-1.18,3.73-1.92,5.56-2.4,5.96-6.12,11.16-13.69,10.73-5.57-.32-10.56-3.66-14.44-7.67-8.84-9.16-7.6-25.3,7.93-24.65,1.9-.31,3.81-.56,5.77-.54,7.63.07,19.14,7.51,16.35,16.57ZM1624.53,1347.51c-6.69,5.77-16.33,6.3-24.99,3.92-.39.02-.78.09-1.17.09-11.97.19-24.38-8.08-26.13-20.44-1.65-11.62,6.3-24.26,17.2-28.19,12-4.33,26.69.93,34.98,10.13,8.9,9.88,11,25.1.11,34.5Z"/>
            <path class="cls-11" d="M268.05,1543c-3.17-3.16-6.32-6.35-9.45-9.56,3.12,3.21,6.27,6.4,9.45,9.56Z"/>
            <path class="cls-11" d="M339.26,1606.88c-.08-.06-.16-.13-.24-.2-1.7-1.37-3.4-2.75-5.09-4.14-.29-.23-.57-.46-.86-.7,2.06,1.69,4.12,3.36,6.19,5.03Z"/>
            <path class="cls-11" d="M453.28,1685.14c-1.39-.8-2.78-1.61-4.16-2.42,1.38.81,2.77,1.62,4.16,2.42Z"/>
            <path class="cls-11" d="M347.18,1613.19c-.06-.05-.12-.1-.18-.14-1.88-1.48-3.75-2.97-5.62-4.47-.12-.1-.24-.19-.36-.29,2.05,1.64,4.1,3.27,6.16,4.9Z"/>
            <path class="cls-11" d="M379.97,1637.83c-.37-.26-.73-.53-1.09-.79-1.94-1.4-3.88-2.8-5.81-4.21-.09-.06-.17-.13-.26-.19,2.38,1.74,4.77,3.48,7.17,5.2Z"/>
            <path class="cls-11" d="M462.84,1690.59c-1.86-1.04-3.71-2.1-5.56-3.15,1.85,1.06,3.7,2.11,5.56,3.15Z"/>
            <path class="cls-11" d="M330.74,1599.93c-1.71-1.41-3.42-2.83-5.12-4.26-.15-.12-.3-.24-.44-.37,1.85,1.55,3.7,3.09,5.56,4.63Z"/>
            <path class="cls-11" d="M229.58,1502.15c3.1,3.5,6.22,6.98,9.38,10.43-3.15-3.45-6.28-6.93-9.38-10.43Z"/>
            <path class="cls-2" d="M487.07,1703.73c-1.12-.58-2.23-1.18-3.35-1.76-.21-.11-.42-.22-.63-.33,1.33.7,2.65,1.4,3.98,2.1Z"/>
            <path class="cls-2" d="M467.96,1693.45c-.7-.39-1.4-.78-2.1-1.17-.19-.11-.38-.21-.57-.32.89.5,1.78,1,2.67,1.49Z"/>
            <path class="cls-2" d="M463.41,1690.91s-.07-.04-.1-.06c-.16-.09-.31-.17-.47-.26.19.11.38.21.57.32Z"/>
            <path class="cls-2" d="M581.94,1746.48c-.25-.09-.5-.19-.74-.29-.34-.13-.69-.26-1.03-.39.59.23,1.19.45,1.78.68Z"/>
            <path class="cls-2" d="M586.61,1748.25c-.52-.2-1.04-.4-1.56-.59-.53-.2-1.07-.4-1.6-.6,1.05.4,2.1.79,3.15,1.19Z"/>
            <path class="cls-2" d="M473.11,1696.28c-.27-.15-.53-.3-.8-.44-.1-.06-.2-.11-.31-.17.37.2.74.41,1.11.61Z"/>
            <path class="cls-2" d="M476.37,1698.05c-.52-.28-1.04-.56-1.56-.85-.53-.29-1.07-.57-1.6-.86,1.05.57,2.11,1.14,3.16,1.71Z"/>
            <path class="cls-2" d="M592.18,1750.33c-.4-.15-.8-.3-1.2-.45-.35-.13-.7-.25-1.04-.38.75.28,1.5.56,2.25.83Z"/>
            <path class="cls-2" d="M553.78,1735.16c-.43-.18-.86-.37-1.29-.55-.96-.41-1.93-.81-2.9-1.22,1.39.6,2.79,1.19,4.19,1.78Z"/>
            <path class="cls-2" d="M545.24,1731.52c-.65-.28-1.29-.57-1.94-.85-1.11-.49-2.23-.97-3.34-1.46,1.76.78,3.51,1.55,5.28,2.31Z"/>
            <path class="cls-2" d="M526.11,1722.94c-1.96-.9-3.91-1.82-5.86-2.73,1.95.92,3.9,1.83,5.86,2.73Z"/>
            <path class="cls-2" d="M515.56,1717.98c-1.77-.85-3.54-1.7-5.3-2.55,1.76.86,3.53,1.71,5.3,2.55Z"/>
            <path class="cls-2" d="M535.29,1727.12c-.17-.08-.33-.15-.5-.23-1.66-.75-3.33-1.5-4.98-2.25,1.83.83,3.65,1.66,5.49,2.48Z"/>
            <path class="cls-2" d="M572.8,1742.93c-.43-.17-.86-.35-1.29-.52-.62-.25-1.24-.49-1.86-.73,1.05.42,2.1.84,3.15,1.25Z"/>
            <path class="cls-2" d="M576.91,1744.54c-.56-.22-1.11-.44-1.67-.66-.2-.08-.4-.15-.6-.23.75.3,1.51.59,2.26.89Z"/>
            <path class="cls-2" d="M556.09,1736.14c-.11-.04-.21-.09-.32-.14-.03-.01-.06-.03-.1-.04.14.06.28.12.42.18Z"/>
            <path class="cls-2" d="M495.81,1708.24c-1.12-.57-2.23-1.14-3.35-1.72-.35-.18-.7-.36-1.05-.54,1.46.76,2.93,1.5,4.4,2.25Z"/>
            <path class="cls-2" d="M506.45,1713.57c-1.88-.93-3.77-1.86-5.64-2.8,1.88.94,3.76,1.88,5.64,2.8Z"/>
            <path class="cls-2" d="M457.28,1687.44c-.13-.07-.25-.15-.38-.22-.14-.08-.27-.15-.41-.23.26.15.52.3.79.45Z"/>
            <path class="cls-2" d="M349.4,1614.94c-.13-.1-.26-.21-.39-.31-.23-.18-.46-.36-.69-.54.36.28.72.56,1.08.85Z"/>
            <path class="cls-2" d="M455.42,1686.38c-.34-.2-.68-.4-1.02-.59-.37-.22-.75-.43-1.12-.65.71.41,1.43.83,2.14,1.24Z"/>
            <path class="cls-2" d="M384.04,1640.73c-.89-.63-1.78-1.26-2.67-1.89.89.63,1.78,1.26,2.67,1.89Z"/>
            <path class="cls-2" d="M332.07,1601.04c-.19-.16-.39-.32-.58-.48-.25-.21-.5-.41-.75-.62.44.37.89.74,1.33,1.1Z"/>
            <path class="cls-2" d="M394.41,1647.97c-.64-.44-1.28-.89-1.92-1.33.64.44,1.28.89,1.92,1.33Z"/>
            <path class="cls-2" d="M593.33,1750.75c1.58.58,3.15,1.16,4.73,1.73,0,0,.01,0,.02,0-1.06-.38-2.12-.78-3.18-1.16-.52-.19-1.05-.38-1.57-.57Z"/>
            <path class="cls-2" d="M268.77,1543.72c-.24-.24-.48-.48-.72-.72.24.24.48.48.72.72Z"/>
            <path class="cls-2" d="M140.14,1382.4c-.04-.07-.08-.13-.12-.2h0c.04.07.08.13.13.2Z"/>
            <path class="cls-2" d="M366.56,1628.04c-.53-.4-1.06-.79-1.59-1.19-.14-.1-.28-.2-.42-.31.67.5,1.34,1,2.01,1.5Z"/>
            <path class="cls-2" d="M437.72,1675.93c-.23-.14-.45-.28-.68-.41-.73-.44-1.46-.88-2.18-1.33.95.58,1.91,1.16,2.86,1.74Z"/>
            <path class="cls-2" d="M445.95,1680.85c-.11-.06-.21-.13-.32-.19-.43-.26-.86-.51-1.29-.77.54.32,1.08.64,1.62.96Z"/>
            <path class="cls-2" d="M449.12,1682.72c-.38-.23-.77-.45-1.15-.68-.14-.08-.29-.17-.43-.25.53.31,1.05.62,1.58.93Z"/>
            <path class="cls-2" d="M401.87,1653.03c-.99-.67-1.98-1.34-2.97-2.01.99.67,1.98,1.34,2.97,2.01Z"/>
            <path class="cls-2" d="M430.59,1671.56c-.11-.07-.22-.14-.33-.21-.1-.06-.2-.12-.3-.18.21.13.42.26.63.39Z"/>
            <path class="cls-2" d="M412.35,1659.98c-1.24-.81-2.48-1.63-3.72-2.45,1.24.82,2.48,1.64,3.72,2.45Z"/>
            <path class="cls-2" d="M420.02,1664.92c-1.1-.7-2.21-1.41-3.31-2.12,1.1.71,2.2,1.42,3.31,2.12Z"/>
            <path class="cls-2" d="M429.56,1670.93c-.28-.17-.55-.35-.83-.52-.84-.52-1.68-1.05-2.52-1.57,1.12.7,2.23,1.4,3.35,2.09Z"/>
            <path class="cls-2" d="M566.19,1740.29c-.24-.1-.48-.2-.71-.29-1.19-.48-2.37-.97-3.55-1.45-.66-.27-1.33-.54-1.99-.81,2.08.86,4.17,1.71,6.26,2.56Z"/>
            <path class="cls-2" d="M243.84,1517.9s.03.03.04.05c-.01-.02-.03-.03-.04-.05Z"/>
            <path class="cls-2" d="M238.95,1512.58s.07.08.11.12c-.04-.04-.07-.08-.11-.12Z"/>
            <path class="cls-2" d="M229.49,1502.06s.05.06.08.09c-.03-.03-.05-.06-.08-.09Z"/>
            <path class="cls-2" d="M253.3,1527.94c.14.15.28.3.43.45-.14-.15-.28-.3-.43-.45Z"/>
            <path class="cls-2" d="M283.19,1557.75c.33.32.66.63,1,.95-.33-.32-.66-.63-1-.95Z"/>
            <path class="cls-2" d="M258.54,1533.37s.05.05.07.07c-.02-.02-.05-.05-.07-.07Z"/>
            <path class="cls-2" d="M298.68,1572.15c.43.39.86.78,1.29,1.17-.43-.39-.86-.78-1.29-1.17Z"/>
            <path class="cls-2" d="M215.52,1485.89s.07.09.11.13c-.04-.04-.07-.09-.11-.13Z"/>
            <path class="cls-2" d="M163.5,1417.9c.06.09.13.18.19.28-.06-.09-.13-.18-.19-.28Z"/>
            <path class="cls-2" d="M151.5,1400.12c.07.11.14.21.21.32-.07-.11-.14-.21-.21-.32Z"/>
            <path class="cls-2" d="M175.92,1435.39c.05.07.1.14.16.21-.05-.07-.1-.14-.16-.21Z"/>
            <path class="cls-2" d="M188.73,1452.55c.05.06.1.13.15.19-.05-.06-.1-.13-.15-.19Z"/>
            <path class="cls-2" d="M201.93,1469.38c.04.06.09.11.13.17-.04-.06-.09-.11-.13-.17Z"/>
            <path class="cls-2" d="M314.53,1586.22c.52.45,1.04.9,1.56,1.35-.52-.45-1.04-.9-1.56-1.35Z"/>
            <path class="cls-11" d="M489.93,1705.22c-2.07-1.07-4.14-2.16-6.21-3.25,1.11.59,2.23,1.18,3.35,1.76.95.5,1.91.99,2.86,1.48Z"/>
            <path class="cls-2" d="M489.93,1705.22c-2.07-1.07-4.14-2.16-6.21-3.25,1.11.59,2.23,1.18,3.35,1.76.95.5,1.91.99,2.86,1.48Z"/>
            <path class="cls-11" d="M445.63,1680.66c-2.04-1.21-4.07-2.42-6.1-3.64,1.6.96,3.2,1.92,4.81,2.88.43.26.86.51,1.29.77Z"/>
            <path class="cls-2" d="M445.63,1680.66c-2.04-1.21-4.07-2.42-6.1-3.64,1.6.96,3.2,1.92,4.81,2.88.43.26.86.51,1.29.77Z"/>
            <path class="cls-11" d="M1313.91,1411.2c-55.4,17.08-111.81,33.19-170.23,33.74-62.02.58-122.68-14.28-183.57-23.95-32.53-5.16-65.28-8.69-98.25-7.96-32.6.72-65.07,4.47-97.24,9.66-43.1,6.95-85.75,16.38-128.63,24.52.89.84,1.55,1.97,2.09,3.18.36.81.67,1.65.95,2.47,1.4,4.02-3.65,7.56-7.08,7.72-.88.04-1.74-.04-2.6-.15-6.97.55-7.79-6.69-3.97-10.95.11-.12.22-.23.33-.35-15.72,2.9-31.47,5.58-47.3,7.86-29.72,4.29-59.42,7.65-89.42,4.53-25.91-2.69-51.13-9.33-75.75-17.69-54.92-18.66-107.08-43.43-164.83-52.56-35.89-5.68-72.13-7.58-108.4-9.08.04.07.08.13.12.2,3.72,5.95,7.51,11.86,11.36,17.72.07.11.14.21.21.32,3.87,5.87,7.8,11.7,11.79,17.47.06.09.13.18.19.28,4.01,5.79,8.08,11.52,12.23,17.21.05.07.1.14.16.21,4.15,5.7,8.37,11.35,12.65,16.94.05.06.1.13.15.19,4.29,5.6,8.64,11.15,13.06,16.64.04.06.09.11.13.17,4.42,5.5,8.91,10.95,13.46,16.34.04.04.07.09.11.13,4.56,5.4,9.18,10.75,13.86,16.04.03.03.05.06.08.09,3.1,3.5,6.22,6.98,9.38,10.43.04.04.07.08.11.12,1.59,1.74,3.18,3.47,4.78,5.19.01.02.03.03.04.05,3.11,3.36,6.26,6.69,9.42,10,.14.15.28.3.43.45,1.6,1.67,3.2,3.33,4.81,4.98.02.02.05.05.07.07,3.12,3.21,6.27,6.4,9.45,9.56.24.24.48.48.72.72,4.75,4.73,9.56,9.41,14.41,14.03.33.32.66.63,1,.95,4.78,4.54,9.61,9.02,14.49,13.46.43.39.86.78,1.29,1.17,4.81,4.35,9.67,8.65,14.57,12.9.52.45,1.04.9,1.56,1.35.39.34.78.67,1.18,1.01,37.35,12.19,74.46,25.26,111.76,36.95,34.18,10.71,68.83,20.31,104.04,26.98.78-1.77,1.84-3.4,3.04-4.69,2.18-2.35,5.27-4.07,8.53-4.05.16,0,.31.03.46.04,2.9-.97,6.2-.79,9.32,1.05,4.58,2.69,6.18,7.6,4.68,12.02,7,1.01,14.03,1.9,21.08,2.64,28.32,2.95,56.61,3.45,84.88-.28,27.71-3.65,54.88-10.37,81.84-17.59,28.97-7.77,57.86-15.57,87.06-22.39,28.6-6.68,57.88-9.51,87.2-10.11,58.05-1.2,116.1,3.94,174.14,4.13,59.07.19,118.52-3.48,177.07-11.38,56.24-7.59,109.13-31.77,165.78-36.87,23.68-2.13,47.3.05,70.81,2.97,12.68-11.61,25.02-23.58,37.01-35.89-.09,0-.16.03-.26.03-3.51.06-6.92-6.13-2.26-6.21,2.17-.04,4.3,2.31,4.51,4.13,49.5-51.14,92.99-108.13,129.36-169.83-62.58,8.46-125.02,9.99-188.09,11.86-60.02,1.78-118.48,21.6-175.34,39.13ZM246.01,1467.66c-.88.04-1.74-.04-2.6-.15-6.97.55-7.79-6.69-3.97-10.95,1.68-1.87,3.86-3.45,6.36-3.69,3.4-.32,5.15,1.96,6.33,4.6.36.81.67,1.65.95,2.47,1.4,4.02-3.65,7.56-7.08,7.72ZM313.84,1533.86c-.67,2.29-3.01,4.19-5.31,4.62-.95.18-2.27.23-3.1-.4-.53-.4-.91-.92-1.13-1.55-.16-.45-.14-.94-.04-1.42-.04-.26-.06-.53-.08-.79-.06-1.03.4-1.95.81-2.85.34-.6.78-1.11,1.32-1.53.5-.51,1.08-.9,1.74-1.19.78-.33,1.61-.55,2.47-.57.92-.03,1.82.31,2.48.93.43.32.7.75.83,1.3.02.15.03.29.05.44.04.12.08.24.1.37.15.97.13,1.69-.14,2.63ZM314.29,1487.6c-.91,7.34-7.46,13.08-14.67,13.97-8.62,1.07-12.01-6.18-11.99-13.66-.06-3.05.83-6.48,2.8-8.87,2.15-2.6,5.96-3.62,9.9-3.38,7.16.44,14.8,5.05,13.95,11.93ZM373.88,1555.83c-3.72.07-1.19-4.97,1.62-5.02,3.72-.07,1.19,4.97-1.62,5.02ZM392.29,1468.46c-3.57,4.27-10.09,6.88-15.56,5.13-4.96-1.59-8.74-7.14-8.19-12.39.58-5.59,6.02-9.51,11.41-9.62.18,0,.35.02.53.02,3.86-1.21,8.2-1.13,11.3,1.35,5.05,4.04,4.36,10.92.52,15.51ZM424.98,1455.37c4.74-.09,1.51,6.32-2.06,6.39-4.74.09-1.51-6.32,2.06-6.39ZM437.77,1585.14c-.25.82-.53,1.68-.86,2.5-1.08,2.68-2.75,5.02-6.16,4.83-2.51-.14-4.75-1.64-6.5-3.45-3.98-4.12-3.42-11.38,3.56-11.09.86-.14,1.71-.25,2.59-.24,3.43.03,8.61,3.38,7.35,7.45ZM482.16,1550.23c-6.08.6-12.01-.76-15.48-4.66-3.18-3.57-4.75-8.82-4.83-13.53-.46-11.55,4.36-22.94,17.73-21.77,11.18.98,21.63,9.46,23.45,20.74,1.71,10.59-9.83,18.13-20.87,19.22ZM551.86,1585.95c-1.5,1.3-3.67,1.42-5.62.88-.09,0-.17.02-.26.02-2.69.04-5.48-1.82-5.88-4.6-.37-2.61,1.42-5.46,3.87-6.34,2.7-.97,6,.21,7.87,2.28,2,2.22,2.48,5.64.02,7.76ZM576.28,1480.5c-1.65.13-3.17-.31-4.54-1.07-3.73.08-6.96-2.85-8.47-6.03-1.25-2.62-.99-5.97.96-8.19,1.73-1.96,4.02-3.41,6.71-3.5,5.77-.2,9.85,4.93,10.62,10.19.56,3.85-.83,8.25-5.28,8.61ZM609.71,1583.42c-3.57.07-7.03-6.22-2.29-6.31,3.57-.07,7.03,6.22,2.29,6.31ZM634.81,1494.05c-.09-4.72,1.28-10.02,4.33-13.7,3.33-4.02,9.2-5.6,15.3-5.22,11.07.68,22.87,7.8,21.55,18.44-1.4,11.35-11.53,20.2-22.67,21.59-13.32,1.66-18.55-9.55-18.52-21.11ZM684.89,1646.91c-4.87,4.94-17.56,9.28-22.77,2.53-3.7-4.79-1.21-11.92,2.49-15.9,2.18-2.35,5.27-4.07,8.53-4.05.16,0,.31.03.46.04,2.89-.97,6.2-.79,9.32,1.05,6.17,3.63,6.96,11.29,1.97,16.34ZM699.78,1526.78c-.67,2.29-3.01,4.19-5.31,4.62-.95.18-2.26.23-3.1-.4-.53-.4-.91-.92-1.12-1.55-.16-.45-.14-.94-.04-1.42-.04-.26-.06-.53-.08-.79-.06-1.03.4-1.95.81-2.85.34-.6.78-1.11,1.32-1.53.5-.51,1.08-.9,1.74-1.19.79-.33,1.62-.55,2.47-.57.92-.03,1.82.31,2.48.93.43.32.7.75.83,1.3.02.15.03.29.05.44.04.12.08.24.1.37.15.97.13,1.69-.15,2.63ZM759.83,1595c-.38,3.45-2.91,6.89-6.68,6.89-1.75,0-3.28-.89-4.45-2.12-1.33-1.4-1.57-3.58-.82-5.31.91-2.11,2.94-4.09,5.38-4.13.88-.53,1.85-.85,2.93-.81,2.9.12,3.92,2.96,3.65,5.48ZM759.82,1548.75c-3.72.07-1.19-4.97,1.62-5.02,3.72-.07,1.19,4.97-1.62,5.02ZM778.23,1461.38c-3.57,4.27-10.09,6.88-15.56,5.13-4.96-1.59-8.74-7.14-8.2-12.39.58-5.59,6.02-9.51,11.41-9.62.18,0,.35.02.52.02,3.86-1.21,8.2-1.13,11.3,1.35,5.05,4.04,4.36,10.92.52,15.51ZM810.91,1448.29c4.74-.09,1.51,6.32-2.06,6.39-4.74.09-1.51-6.32,2.06-6.39ZM823.71,1578.07c-.25.82-.53,1.68-.86,2.5-1.08,2.68-2.75,5.02-6.16,4.83-2.51-.14-4.75-1.64-6.49-3.45-3.98-4.12-3.42-11.38,3.56-11.09.86-.14,1.71-.25,2.59-.24,3.43.03,8.61,3.38,7.36,7.45ZM868.09,1543.16c-6.08.6-12.01-.76-15.48-4.66-3.18-3.57-4.75-8.82-4.83-13.53-.46-11.55,4.36-22.94,17.73-21.77,11.18.98,21.63,9.46,23.45,20.74,1.71,10.59-9.83,18.13-20.87,19.22ZM921.86,1581.02c-3.01,2.59-7.34,2.83-11.24,1.76-.18.01-.35.04-.52.04-5.38.09-10.96-3.63-11.75-9.19-.74-5.23,2.84-10.91,7.73-12.68,5.4-1.95,12.01.42,15.74,4.56,4,4.44,4.95,11.29.05,15.52ZM962.21,1473.42c-1.65.13-3.17-.31-4.54-1.07-3.73.08-6.96-2.85-8.47-6.03-1.25-2.62-.99-5.97.96-8.19,1.73-1.96,4.02-3.41,6.71-3.5,5.77-.2,9.85,4.93,10.62,10.19.56,3.85-.83,8.25-5.28,8.61ZM1048.18,1550.84c-2.21-1.94-4.09-4.48-4.4-7.41-.42-3.97,2.23-6.06,5.31-7.48.94-.43,1.93-.8,2.88-1.15,4.7-1.69,8.9,4.18,9.13,8.2.06,1.03-.03,2.04-.14,3.05.73,8.16-7.74,9.21-12.78,4.79ZM1084.32,1493.98c-3.58.1-7.61-.89-10.43-3.18-3.07-2.49-4.32-6.93-4.08-11.56.43-8.4,5.73-17.41,13.81-16.5,8.62.97,15.42,8.59,16.56,17.02,1.36,10.09-7.09,14.15-15.86,14.22ZM1142.88,1472.49c-.46.63-1.06,1.07-1.8,1.34-.52.19-1.1.17-1.67.06-.31.05-.62.08-.92.1-1.2.08-2.29-.44-3.35-.92-.71-.39-1.31-.9-1.81-1.53-.6-.58-1.07-1.26-1.41-2.03-.39-.92-.66-1.89-.7-2.89-.05-1.08.34-2.14,1.06-2.91.37-.51.87-.84,1.51-.99.17-.02.34-.04.52-.06.14-.05.29-.1.44-.12,1.13-.19,1.98-.17,3.08.14,2.69.75,4.95,3.47,5.48,6.16.22,1.11.3,2.65-.43,3.64ZM1236.88,1509.1c.12,4.11-5.47,1.37-5.56-1.73-.12-4.11,5.47-1.37,5.56,1.73ZM1217.18,1465.66c.15,2.83-1.22,5.58-3.16,7.56-3.3,3.36-9.37,5.82-13.67,2.8-6.06-4.24-2.82-15.41,1.26-19.83,4.17-4.52,10.83-4.15,14.23,1.04,1.72,2.63,2.01,5.48,1.29,8.03.02.13.05.26.05.4ZM1247.57,1549.03c-1.33,4.32-6.11,7.65-10.67,7.22-4.85-.46-8.3-5.14-8.45-9.8,0-.15.01-.3.02-.45-1.09-3.33-1.06-7.1,1.06-9.81,3.46-4.42,9.43-3.88,13.44-.59,3.74,3.06,6.06,8.69,4.59,13.44ZM1561.16,1400.24c1.65-1.84,3.81-3.4,6.26-3.63,3.35-.31,5.07,1.93,6.23,4.53.35.8.66,1.63.94,2.43,1.38,3.96-3.59,7.44-6.97,7.6-.87.04-1.71-.04-2.56-.15-6.86.54-7.67-6.58-3.91-10.78ZM1303.88,1468.02c-4.89-1.56-8.61-7.03-8.07-12.2.58-5.5,5.93-9.36,11.23-9.47.17,0,.34.02.52.02,3.8-1.19,8.07-1.12,11.12,1.33,4.97,3.98,4.29,10.75.51,15.27-3.52,4.21-9.94,6.77-15.32,5.05ZM1313.52,1504.95c-3.67.07-1.17-4.89,1.59-4.94,3.67-.07,1.17,4.89-1.59,4.94ZM1326.26,1579.79c-1.2.1-2.31-.23-3.31-.78-2.72.06-5.07-2.07-6.17-4.39-.91-1.91-.72-4.35.7-5.97,1.26-1.43,2.93-2.49,4.89-2.55,4.2-.15,7.18,3.59,7.74,7.42.41,2.8-.61,6.01-3.85,6.27ZM1363.83,1406.03c4.67-.09,1.49,6.23-2.03,6.29-4.66.09-1.49-6.23,2.03-6.29ZM1376.43,1533.82c-.25.81-.52,1.65-.85,2.46-1.06,2.64-2.71,4.94-6.06,4.75-2.47-.14-4.68-1.62-6.4-3.4-3.92-4.05-3.36-11.2,3.51-10.92.84-.14,1.69-.25,2.55-.24,3.38.03,8.47,3.33,7.24,7.34ZM1420.13,1499.44c-5.99.59-11.82-.75-15.24-4.58-3.13-3.51-4.67-8.68-4.76-13.32-.45-11.37,4.3-22.59,17.46-21.44,11.01.96,21.3,9.31,23.09,20.43,1.68,10.42-9.68,17.85-20.55,18.92ZM1467.66,1424.23c-.15.02-.3.05-.45.06-3.21.13-6.32-1.45-8.54-3.68-3.78-3.79-6.49-10.71-3.02-15.56,4.89-6.83,17.53-3.02,22.5,1.67,5.09,4.79,4.59,12.35-1.35,16.15-3,1.92-6.25,2.22-9.13,1.37ZM1500.95,1415.72c1.71-1.93,3.96-3.36,6.6-3.45,5.68-.2,9.7,4.85,10.46,10.03.55,3.79-.82,8.13-5.2,8.47-1.62.13-3.12-.31-4.47-1.06-3.68.08-6.85-2.8-8.34-5.94-1.23-2.58-.98-5.88.95-8.06ZM1488.77,1534.61c-1.48,1.28-3.61,1.4-5.53.87-.09,0-.17.02-.26.02-2.65.04-5.4-1.79-5.79-4.53-.37-2.57,1.4-5.37,3.81-6.24,2.66-.96,5.91.21,7.75,2.24,1.97,2.19,2.44,5.56.02,7.64Z"/>
            <path class="cls-2" d="M1313.91,1411.2c-55.4,17.08-111.81,33.19-170.23,33.74-62.02.58-122.68-14.28-183.57-23.95-32.53-5.16-65.28-8.69-98.25-7.96-32.6.72-65.07,4.47-97.24,9.66-43.1,6.95-85.75,16.38-128.63,24.52.89.84,1.55,1.97,2.09,3.18.36.81.67,1.65.95,2.47,1.4,4.02-3.65,7.56-7.08,7.72-.88.04-1.74-.04-2.6-.15-6.97.55-7.79-6.69-3.97-10.95.11-.12.22-.23.33-.35-15.72,2.9-31.47,5.58-47.3,7.86-29.72,4.29-59.42,7.65-89.42,4.53-25.91-2.69-51.13-9.33-75.75-17.69-54.92-18.66-107.08-43.43-164.83-52.56-35.89-5.68-72.13-7.58-108.4-9.08.04.07.08.13.12.2,3.72,5.95,7.51,11.86,11.36,17.72.07.11.14.21.21.32,3.87,5.87,7.8,11.7,11.79,17.47.06.09.13.18.19.28,4.01,5.79,8.08,11.52,12.23,17.21.05.07.1.14.16.21,4.15,5.7,8.37,11.35,12.65,16.94.05.06.1.13.15.19,4.29,5.6,8.64,11.15,13.06,16.64.04.06.09.11.13.17,4.42,5.5,8.91,10.95,13.46,16.34.04.04.07.09.11.13,4.56,5.4,9.18,10.75,13.86,16.04.03.03.05.06.08.09,3.1,3.5,6.22,6.98,9.38,10.43.04.04.07.08.11.12,1.59,1.74,3.18,3.47,4.78,5.19.01.02.03.03.04.05,3.11,3.36,6.26,6.69,9.42,10,.14.15.28.3.43.45,1.6,1.67,3.2,3.33,4.81,4.98.02.02.05.05.07.07,3.12,3.21,6.27,6.4,9.45,9.56.24.24.48.48.72.72,4.75,4.73,9.56,9.41,14.41,14.03.33.32.66.63,1,.95,4.78,4.54,9.61,9.02,14.49,13.46.43.39.86.78,1.29,1.17,4.81,4.35,9.67,8.65,14.57,12.9.52.45,1.04.9,1.56,1.35.39.34.78.67,1.18,1.01,37.35,12.19,74.46,25.26,111.76,36.95,34.18,10.71,68.83,20.31,104.04,26.98.78-1.77,1.84-3.4,3.04-4.69,2.18-2.35,5.27-4.07,8.53-4.05.16,0,.31.03.46.04,2.9-.97,6.2-.79,9.32,1.05,4.58,2.69,6.18,7.6,4.68,12.02,7,1.01,14.03,1.9,21.08,2.64,28.32,2.95,56.61,3.45,84.88-.28,27.71-3.65,54.88-10.37,81.84-17.59,28.97-7.77,57.86-15.57,87.06-22.39,28.6-6.68,57.88-9.51,87.2-10.11,58.05-1.2,116.1,3.94,174.14,4.13,59.07.19,118.52-3.48,177.07-11.38,56.24-7.59,109.13-31.77,165.78-36.87,23.68-2.13,47.3.05,70.81,2.97,12.68-11.61,25.02-23.58,37.01-35.89-.09,0-.16.03-.26.03-3.51.06-6.92-6.13-2.26-6.21,2.17-.04,4.3,2.31,4.51,4.13,49.5-51.14,92.99-108.13,129.36-169.83-62.58,8.46-125.02,9.99-188.09,11.86-60.02,1.78-118.48,21.6-175.34,39.13ZM246.01,1467.66c-.88.04-1.74-.04-2.6-.15-6.97.55-7.79-6.69-3.97-10.95,1.68-1.87,3.86-3.45,6.36-3.69,3.4-.32,5.15,1.96,6.33,4.6.36.81.67,1.65.95,2.47,1.4,4.02-3.65,7.56-7.08,7.72ZM313.84,1533.86c-.67,2.29-3.01,4.19-5.31,4.62-.95.18-2.27.23-3.1-.4-.53-.4-.91-.92-1.13-1.55-.16-.45-.14-.94-.04-1.42-.04-.26-.06-.53-.08-.79-.06-1.03.4-1.95.81-2.85.34-.6.78-1.11,1.32-1.53.5-.51,1.08-.9,1.74-1.19.78-.33,1.61-.55,2.47-.57.92-.03,1.82.31,2.48.93.43.32.7.75.83,1.3.02.15.03.29.05.44.04.12.08.24.1.37.15.97.13,1.69-.14,2.63ZM314.29,1487.6c-.91,7.34-7.46,13.08-14.67,13.97-8.62,1.07-12.01-6.18-11.99-13.66-.06-3.05.83-6.48,2.8-8.87,2.15-2.6,5.96-3.62,9.9-3.38,7.16.44,14.8,5.05,13.95,11.93ZM373.88,1555.83c-3.72.07-1.19-4.97,1.62-5.02,3.72-.07,1.19,4.97-1.62,5.02ZM392.29,1468.46c-3.57,4.27-10.09,6.88-15.56,5.13-4.96-1.59-8.74-7.14-8.19-12.39.58-5.59,6.02-9.51,11.41-9.62.18,0,.35.02.53.02,3.86-1.21,8.2-1.13,11.3,1.35,5.05,4.04,4.36,10.92.52,15.51ZM424.98,1455.37c4.74-.09,1.51,6.32-2.06,6.39-4.74.09-1.51-6.32,2.06-6.39ZM437.77,1585.14c-.25.82-.53,1.68-.86,2.5-1.08,2.68-2.75,5.02-6.16,4.83-2.51-.14-4.75-1.64-6.5-3.45-3.98-4.12-3.42-11.38,3.56-11.09.86-.14,1.71-.25,2.59-.24,3.43.03,8.61,3.38,7.35,7.45ZM482.16,1550.23c-6.08.6-12.01-.76-15.48-4.66-3.18-3.57-4.75-8.82-4.83-13.53-.46-11.55,4.36-22.94,17.73-21.77,11.18.98,21.63,9.46,23.45,20.74,1.71,10.59-9.83,18.13-20.87,19.22ZM551.86,1585.95c-1.5,1.3-3.67,1.42-5.62.88-.09,0-.17.02-.26.02-2.69.04-5.48-1.82-5.88-4.6-.37-2.61,1.42-5.46,3.87-6.34,2.7-.97,6,.21,7.87,2.28,2,2.22,2.48,5.64.02,7.76ZM576.28,1480.5c-1.65.13-3.17-.31-4.54-1.07-3.73.08-6.96-2.85-8.47-6.03-1.25-2.62-.99-5.97.96-8.19,1.73-1.96,4.02-3.41,6.71-3.5,5.77-.2,9.85,4.93,10.62,10.19.56,3.85-.83,8.25-5.28,8.61ZM609.71,1583.42c-3.57.07-7.03-6.22-2.29-6.31,3.57-.07,7.03,6.22,2.29,6.31ZM634.81,1494.05c-.09-4.72,1.28-10.02,4.33-13.7,3.33-4.02,9.2-5.6,15.3-5.22,11.07.68,22.87,7.8,21.55,18.44-1.4,11.35-11.53,20.2-22.67,21.59-13.32,1.66-18.55-9.55-18.52-21.11ZM684.89,1646.91c-4.87,4.94-17.56,9.28-22.77,2.53-3.7-4.79-1.21-11.92,2.49-15.9,2.18-2.35,5.27-4.07,8.53-4.05.16,0,.31.03.46.04,2.89-.97,6.2-.79,9.32,1.05,6.17,3.63,6.96,11.29,1.97,16.34ZM699.78,1526.78c-.67,2.29-3.01,4.19-5.31,4.62-.95.18-2.26.23-3.1-.4-.53-.4-.91-.92-1.12-1.55-.16-.45-.14-.94-.04-1.42-.04-.26-.06-.53-.08-.79-.06-1.03.4-1.95.81-2.85.34-.6.78-1.11,1.32-1.53.5-.51,1.08-.9,1.74-1.19.79-.33,1.62-.55,2.47-.57.92-.03,1.82.31,2.48.93.43.32.7.75.83,1.3.02.15.03.29.05.44.04.12.08.24.1.37.15.97.13,1.69-.15,2.63ZM759.83,1595c-.38,3.45-2.91,6.89-6.68,6.89-1.75,0-3.28-.89-4.45-2.12-1.33-1.4-1.57-3.58-.82-5.31.91-2.11,2.94-4.09,5.38-4.13.88-.53,1.85-.85,2.93-.81,2.9.12,3.92,2.96,3.65,5.48ZM759.82,1548.75c-3.72.07-1.19-4.97,1.62-5.02,3.72-.07,1.19,4.97-1.62,5.02ZM778.23,1461.38c-3.57,4.27-10.09,6.88-15.56,5.13-4.96-1.59-8.74-7.14-8.2-12.39.58-5.59,6.02-9.51,11.41-9.62.18,0,.35.02.52.02,3.86-1.21,8.2-1.13,11.3,1.35,5.05,4.04,4.36,10.92.52,15.51ZM810.91,1448.29c4.74-.09,1.51,6.32-2.06,6.39-4.74.09-1.51-6.32,2.06-6.39ZM823.71,1578.07c-.25.82-.53,1.68-.86,2.5-1.08,2.68-2.75,5.02-6.16,4.83-2.51-.14-4.75-1.64-6.49-3.45-3.98-4.12-3.42-11.38,3.56-11.09.86-.14,1.71-.25,2.59-.24,3.43.03,8.61,3.38,7.36,7.45ZM868.09,1543.16c-6.08.6-12.01-.76-15.48-4.66-3.18-3.57-4.75-8.82-4.83-13.53-.46-11.55,4.36-22.94,17.73-21.77,11.18.98,21.63,9.46,23.45,20.74,1.71,10.59-9.83,18.13-20.87,19.22ZM921.86,1581.02c-3.01,2.59-7.34,2.83-11.24,1.76-.18.01-.35.04-.52.04-5.38.09-10.96-3.63-11.75-9.19-.74-5.23,2.84-10.91,7.73-12.68,5.4-1.95,12.01.42,15.74,4.56,4,4.44,4.95,11.29.05,15.52ZM962.21,1473.42c-1.65.13-3.17-.31-4.54-1.07-3.73.08-6.96-2.85-8.47-6.03-1.25-2.62-.99-5.97.96-8.19,1.73-1.96,4.02-3.41,6.71-3.5,5.77-.2,9.85,4.93,10.62,10.19.56,3.85-.83,8.25-5.28,8.61ZM1048.18,1550.84c-2.21-1.94-4.09-4.48-4.4-7.41-.42-3.97,2.23-6.06,5.31-7.48.94-.43,1.93-.8,2.88-1.15,4.7-1.69,8.9,4.18,9.13,8.2.06,1.03-.03,2.04-.14,3.05.73,8.16-7.74,9.21-12.78,4.79ZM1084.32,1493.98c-3.58.1-7.61-.89-10.43-3.18-3.07-2.49-4.32-6.93-4.08-11.56.43-8.4,5.73-17.41,13.81-16.5,8.62.97,15.42,8.59,16.56,17.02,1.36,10.09-7.09,14.15-15.86,14.22ZM1142.88,1472.49c-.46.63-1.06,1.07-1.8,1.34-.52.19-1.1.17-1.67.06-.31.05-.62.08-.92.1-1.2.08-2.29-.44-3.35-.92-.71-.39-1.31-.9-1.81-1.53-.6-.58-1.07-1.26-1.41-2.03-.39-.92-.66-1.89-.7-2.89-.05-1.08.34-2.14,1.06-2.91.37-.51.87-.84,1.51-.99.17-.02.34-.04.52-.06.14-.05.29-.1.44-.12,1.13-.19,1.98-.17,3.08.14,2.69.75,4.95,3.47,5.48,6.16.22,1.11.3,2.65-.43,3.64ZM1236.88,1509.1c.12,4.11-5.47,1.37-5.56-1.73-.12-4.11,5.47-1.37,5.56,1.73ZM1217.18,1465.66c.15,2.83-1.22,5.58-3.16,7.56-3.3,3.36-9.37,5.82-13.67,2.8-6.06-4.24-2.82-15.41,1.26-19.83,4.17-4.52,10.83-4.15,14.23,1.04,1.72,2.63,2.01,5.48,1.29,8.03.02.13.05.26.05.4ZM1247.57,1549.03c-1.33,4.32-6.11,7.65-10.67,7.22-4.85-.46-8.3-5.14-8.45-9.8,0-.15.01-.3.02-.45-1.09-3.33-1.06-7.1,1.06-9.81,3.46-4.42,9.43-3.88,13.44-.59,3.74,3.06,6.06,8.69,4.59,13.44ZM1561.16,1400.24c1.65-1.84,3.81-3.4,6.26-3.63,3.35-.31,5.07,1.93,6.23,4.53.35.8.66,1.63.94,2.43,1.38,3.96-3.59,7.44-6.97,7.6-.87.04-1.71-.04-2.56-.15-6.86.54-7.67-6.58-3.91-10.78ZM1303.88,1468.02c-4.89-1.56-8.61-7.03-8.07-12.2.58-5.5,5.93-9.36,11.23-9.47.17,0,.34.02.52.02,3.8-1.19,8.07-1.12,11.12,1.33,4.97,3.98,4.29,10.75.51,15.27-3.52,4.21-9.94,6.77-15.32,5.05ZM1313.52,1504.95c-3.67.07-1.17-4.89,1.59-4.94,3.67-.07,1.17,4.89-1.59,4.94ZM1326.26,1579.79c-1.2.1-2.31-.23-3.31-.78-2.72.06-5.07-2.07-6.17-4.39-.91-1.91-.72-4.35.7-5.97,1.26-1.43,2.93-2.49,4.89-2.55,4.2-.15,7.18,3.59,7.74,7.42.41,2.8-.61,6.01-3.85,6.27ZM1363.83,1406.03c4.67-.09,1.49,6.23-2.03,6.29-4.66.09-1.49-6.23,2.03-6.29ZM1376.43,1533.82c-.25.81-.52,1.65-.85,2.46-1.06,2.64-2.71,4.94-6.06,4.75-2.47-.14-4.68-1.62-6.4-3.4-3.92-4.05-3.36-11.2,3.51-10.92.84-.14,1.69-.25,2.55-.24,3.38.03,8.47,3.33,7.24,7.34ZM1420.13,1499.44c-5.99.59-11.82-.75-15.24-4.58-3.13-3.51-4.67-8.68-4.76-13.32-.45-11.37,4.3-22.59,17.46-21.44,11.01.96,21.3,9.31,23.09,20.43,1.68,10.42-9.68,17.85-20.55,18.92ZM1467.66,1424.23c-.15.02-.3.05-.45.06-3.21.13-6.32-1.45-8.54-3.68-3.78-3.79-6.49-10.71-3.02-15.56,4.89-6.83,17.53-3.02,22.5,1.67,5.09,4.79,4.59,12.35-1.35,16.15-3,1.92-6.25,2.22-9.13,1.37ZM1500.95,1415.72c1.71-1.93,3.96-3.36,6.6-3.45,5.68-.2,9.7,4.85,10.46,10.03.55,3.79-.82,8.13-5.2,8.47-1.62.13-3.12-.31-4.47-1.06-3.68.08-6.85-2.8-8.34-5.94-1.23-2.58-.98-5.88.95-8.06ZM1488.77,1534.61c-1.48,1.28-3.61,1.4-5.53.87-.09,0-.17.02-.26.02-2.65.04-5.4-1.79-5.79-4.53-.37-2.57,1.4-5.37,3.81-6.24,2.66-.96,5.91.21,7.75,2.24,1.97,2.19,2.44,5.56.02,7.64Z"/>
            <path class="cls-11" d="M552.49,1734.61c-2.06-.87-4.12-1.75-6.17-2.64,1.09.47,2.19.94,3.28,1.41.96.41,1.93.82,2.9,1.22Z"/>
            <path class="cls-2" d="M552.49,1734.61c-2.06-.87-4.12-1.75-6.17-2.64,1.09.47,2.19.94,3.28,1.41.96.41,1.93.82,2.9,1.22Z"/>
            <path class="cls-11" d="M462.84,1690.59c.16.09.31.17.47.26-2.14-1.2-4.28-2.41-6.41-3.63.13.07.25.15.38.22,1.85,1.06,3.7,2.11,5.56,3.15Z"/>
            <path class="cls-2" d="M462.84,1690.59c.16.09.31.17.47.26-2.14-1.2-4.28-2.41-6.41-3.63.13.07.25.15.38.22,1.85,1.06,3.7,2.11,5.56,3.15Z"/>
            <path class="cls-11" d="M559.94,1737.73c.66.27,1.33.54,1.99.81-2.06-.84-4.11-1.69-6.16-2.55.11.04.21.09.32.14,1.28.54,2.56,1.07,3.85,1.6Z"/>
            <path class="cls-2" d="M559.94,1737.73c.66.27,1.33.54,1.99.81-2.06-.84-4.11-1.69-6.16-2.55.11.04.21.09.32.14,1.28.54,2.56,1.07,3.85,1.6Z"/>
            <path class="cls-11" d="M384.04,1640.73c1.15.82,2.31,1.63,3.46,2.44-2.18-1.52-4.34-3.06-6.5-4.6.13.09.25.18.38.27.89.63,1.78,1.26,2.67,1.89Z"/>
            <path class="cls-2" d="M384.04,1640.73c1.15.82,2.31,1.63,3.46,2.44-2.18-1.52-4.34-3.06-6.5-4.6.13.09.25.18.38.27.89.63,1.78,1.26,2.67,1.89Z"/>
            <path class="cls-11" d="M569.65,1741.68c.62.25,1.24.49,1.86.73-2.01-.8-4.02-1.6-6.03-2.41.24.1.48.2.71.29,1.15.46,2.3.93,3.46,1.39Z"/>
            <path class="cls-2" d="M569.65,1741.68c.62.25,1.24.49,1.86.73-2.01-.8-4.02-1.6-6.03-2.41.24.1.48.2.71.29,1.15.46,2.3.93,3.46,1.39Z"/>
            <path class="cls-11" d="M434.86,1674.19c.73.44,1.46.88,2.18,1.33-2.27-1.38-4.53-2.76-6.79-4.16.11.07.22.14.33.21,1.42.88,2.85,1.75,4.27,2.62Z"/>
            <path class="cls-2" d="M434.86,1674.19c.73.44,1.46.88,2.18,1.33-2.27-1.38-4.53-2.76-6.79-4.16.11.07.22.14.33.21,1.42.88,2.85,1.75,4.27,2.62Z"/>
            <path class="cls-11" d="M453.28,1685.14c.37.22.75.43,1.12.65-2.15-1.24-4.3-2.49-6.44-3.75.38.23.77.45,1.15.68,1.38.81,2.77,1.62,4.16,2.42Z"/>
            <path class="cls-2" d="M453.28,1685.14c.37.22.75.43,1.12.65-2.15-1.24-4.3-2.49-6.44-3.75.38.23.77.45,1.15.68,1.38.81,2.77,1.62,4.16,2.42Z"/>
            <path class="cls-11" d="M355.12,1619.37c-2.05-1.57-4.08-3.16-6.12-4.75.13.1.26.21.39.31,1.9,1.49,3.81,2.97,5.72,4.44Z"/>
            <path class="cls-2" d="M355.12,1619.37c-2.05-1.57-4.08-3.16-6.12-4.75.13.1.26.21.39.31,1.9,1.49,3.81,2.97,5.72,4.44Z"/>
            <path class="cls-11" d="M515.56,1717.98c1.56.75,3.12,1.49,4.69,2.23,1.95.92,3.9,1.83,5.86,2.73.1.05.2.09.3.14-5.58-2.58-11.12-5.21-16.64-7.89.17.08.33.16.5.25,1.76.86,3.53,1.71,5.3,2.55Z"/>
            <path class="cls-2" d="M515.56,1717.98c1.56.75,3.12,1.49,4.69,2.23,1.95.92,3.9,1.83,5.86,2.73.1.05.2.09.3.14-5.58-2.58-11.12-5.21-16.64-7.89.17.08.33.16.5.25,1.76.86,3.53,1.71,5.3,2.55Z"/>
            <path class="cls-11" d="M357.28,1621.03c1.75,1.34,3.51,2.68,5.28,4.01-1.76-1.33-3.52-2.67-5.28-4.01Z"/>
            <path class="cls-2" d="M357.28,1621.03c1.75,1.34,3.51,2.68,5.28,4.01-1.76-1.33-3.52-2.67-5.28-4.01Z"/>
            <path class="cls-11" d="M534.78,1726.89c-2.21-.99-4.42-1.99-6.62-3.01.55.25,1.09.5,1.64.75,1.66.76,3.32,1.51,4.98,2.25Z"/>
            <path class="cls-2" d="M534.78,1726.89c-2.21-.99-4.42-1.99-6.62-3.01.55.25,1.09.5,1.64.75,1.66.76,3.32,1.51,4.98,2.25Z"/>
            <path class="cls-11" d="M373.06,1632.82c1.93,1.41,3.87,2.82,5.81,4.21-1.94-1.4-3.88-2.8-5.81-4.21Z"/>
            <path class="cls-2" d="M373.06,1632.82c1.93,1.41,3.87,2.82,5.81,4.21-1.94-1.4-3.88-2.8-5.81-4.21Z"/>
            <path class="cls-11" d="M598.08,1752.48c.52.18,1.03.36,1.55.54-1.58-.57-3.15-1.13-4.73-1.71,1.06.39,2.12.78,3.18,1.16Z"/>
            <path class="cls-2" d="M598.08,1752.48c.52.18,1.03.36,1.55.54-1.58-.57-3.15-1.13-4.73-1.71,1.06.39,2.12.78,3.18,1.16Z"/>
            <path class="cls-11" d="M499.64,1710.18c-2.4-1.21-4.79-2.43-7.17-3.65,1.12.57,2.23,1.15,3.35,1.72,1.27.65,2.55,1.3,3.82,1.94Z"/>
            <path class="cls-2" d="M499.64,1710.18c-2.4-1.21-4.79-2.43-7.17-3.65,1.12.57,2.23,1.15,3.35,1.72,1.27.65,2.55,1.3,3.82,1.94Z"/>
            <path class="cls-11" d="M543.31,1730.66c-2.19-.96-4.38-1.92-6.56-2.89,1.07.48,2.15.95,3.22,1.43,1.11.49,2.23.98,3.34,1.46Z"/>
            <path class="cls-2" d="M543.31,1730.66c-2.19-.96-4.38-1.92-6.56-2.89,1.07.48,2.15.95,3.22,1.43,1.11.49,2.23.98,3.34,1.46Z"/>
            <path class="cls-11" d="M341.37,1608.58c1.87,1.5,3.74,2.99,5.62,4.47-1.88-1.48-3.75-2.97-5.62-4.47Z"/>
            <path class="cls-2" d="M341.37,1608.58c1.87,1.5,3.74,2.99,5.62,4.47-1.88-1.48-3.75-2.97-5.62-4.47Z"/>
            <path class="cls-11" d="M506.45,1713.57c.48.24.97.47,1.45.71-2.43-1.19-4.85-2.39-7.26-3.6.05.03.11.05.16.08,1.88.94,3.76,1.88,5.64,2.8Z"/>
            <path class="cls-2" d="M506.45,1713.57c.48.24.97.47,1.45.71-2.43-1.19-4.85-2.39-7.26-3.6.05.03.11.05.16.08,1.88.94,3.76,1.88,5.64,2.8Z"/>
            <path class="cls-11" d="M589.93,1749.49c.35.13.7.25,1.04.38-1.98-.73-3.95-1.47-5.92-2.22.52.2,1.04.4,1.56.59,1.11.42,2.21.83,3.32,1.24Z"/>
            <path class="cls-2" d="M589.93,1749.49c.35.13.7.25,1.04.38-1.98-.73-3.95-1.47-5.92-2.22.52.2,1.04.4,1.56.59,1.11.42,2.21.83,3.32,1.24Z"/>
            <path class="cls-11" d="M420.02,1664.92c.11.07.23.15.34.22-2.16-1.37-4.31-2.76-6.45-4.15.93.61,1.87,1.21,2.8,1.81,1.1.71,2.2,1.42,3.31,2.12Z"/>
            <path class="cls-2" d="M420.02,1664.92c.11.07.23.15.34.22-2.16-1.37-4.31-2.76-6.45-4.15.93.61,1.87,1.21,2.8,1.81,1.1.71,2.2,1.42,3.31,2.12Z"/>
            <path class="cls-11" d="M472,1695.67c.1.06.2.11.31.17-2.16-1.18-4.31-2.37-6.45-3.57.7.39,1.4.79,2.1,1.17,1.35.75,2.69,1.49,4.04,2.22Z"/>
            <path class="cls-2" d="M472,1695.67c.1.06.2.11.31.17-2.16-1.18-4.31-2.37-6.45-3.57.7.39,1.4.79,2.1,1.17,1.35.75,2.69,1.49,4.04,2.22Z"/>
            <path class="cls-11" d="M318.77,1589.87c1.5,1.29,3.01,2.57,4.52,3.85-1.51-1.28-3.02-2.56-4.52-3.85Z"/>
            <path class="cls-2" d="M318.77,1589.87c1.5,1.29,3.01,2.57,4.52,3.85-1.51-1.28-3.02-2.56-4.52-3.85Z"/>
            <path class="cls-11" d="M371.55,1631.72c-2.2-1.62-4.39-3.24-6.58-4.88.53.4,1.06.79,1.59,1.19,1.66,1.23,3.32,2.47,4.99,3.69Z"/>
            <path class="cls-2" d="M371.55,1631.72c-2.2-1.62-4.39-3.24-6.58-4.88.53.4,1.06.79,1.59,1.19,1.66,1.23,3.32,2.47,4.99,3.69Z"/>
            <path class="cls-11" d="M412.35,1659.98c.12.08.23.15.35.23-2.5-1.63-4.99-3.27-7.48-4.93,1.13.76,2.27,1.51,3.41,2.26,1.24.82,2.48,1.64,3.72,2.45Z"/>
            <path class="cls-2" d="M412.35,1659.98c.12.08.23.15.35.23-2.5-1.63-4.99-3.27-7.48-4.93,1.13.76,2.27,1.51,3.41,2.26,1.24.82,2.48,1.64,3.72,2.45Z"/>
            <path class="cls-11" d="M331.49,1600.55c-1.96-1.62-3.92-3.24-5.87-4.88,1.7,1.43,3.41,2.84,5.12,4.26.25.21.5.41.75.62Z"/>
            <path class="cls-2" d="M331.49,1600.55c-1.96-1.62-3.92-3.24-5.87-4.88,1.7,1.43,3.41,2.84,5.12,4.26.25.21.5.41.75.62Z"/>
            <path class="cls-11" d="M394.41,1647.97c.4.27.8.55,1.2.82-2.45-1.68-4.89-3.36-7.32-5.06,1.39.98,2.79,1.94,4.19,2.91.64.44,1.28.89,1.92,1.33Z"/>
            <path class="cls-2" d="M394.41,1647.97c.4.27.8.55,1.2.82-2.45-1.68-4.89-3.36-7.32-5.06,1.39.98,2.79,1.94,4.19,2.91.64.44,1.28.89,1.92,1.33Z"/>
            <path class="cls-11" d="M401.87,1653.03c.54.36,1.07.72,1.61,1.08-1.98-1.32-3.95-2.66-5.92-4,.45.3.89.61,1.34.91.99.67,1.98,1.34,2.97,2.01Z"/>
            <path class="cls-2" d="M401.87,1653.03c.54.36,1.07.72,1.61,1.08-1.98-1.32-3.95-2.66-5.92-4,.45.3.89.61,1.34.91.99.67,1.98,1.34,2.97,2.01Z"/>
            <path class="cls-11" d="M333.93,1602.55c1.69,1.38,3.39,2.76,5.09,4.14-1.7-1.37-3.4-2.75-5.09-4.14Z"/>
            <path class="cls-2" d="M333.93,1602.55c1.69,1.38,3.39,2.76,5.09,4.14-1.7-1.37-3.4-2.75-5.09-4.14Z"/>
            <path class="cls-11" d="M580.16,1745.8c.34.13.69.26,1.03.39-1.99-.76-3.98-1.53-5.96-2.31.56.22,1.11.44,1.67.66,1.08.42,2.17.84,3.26,1.26Z"/>
            <path class="cls-2" d="M580.16,1745.8c.34.13.69.26,1.03.39-1.99-.76-3.98-1.53-5.96-2.31.56.22,1.11.44,1.67.66,1.08.42,2.17.84,3.26,1.26Z"/>
            <path class="cls-11" d="M481.35,1700.72c-2.18-1.16-4.36-2.34-6.53-3.51.52.28,1.04.57,1.56.85,1.66.89,3.31,1.78,4.97,2.67Z"/>
            <path class="cls-2" d="M481.35,1700.72c-2.18-1.16-4.36-2.34-6.53-3.51.52.28,1.04.57,1.56.85,1.66.89,3.31,1.78,4.97,2.67Z"/>
            <path class="cls-11" d="M428.73,1670.4c-2.14-1.33-4.27-2.67-6.4-4.01,1.29.82,2.58,1.63,3.88,2.44.84.53,1.68,1.05,2.52,1.57Z"/>
            <path class="cls-2" d="M428.73,1670.4c-2.14-1.33-4.27-2.67-6.4-4.01,1.29.82,2.58,1.63,3.88,2.44.84.53,1.68,1.05,2.52,1.57Z"/>
            <path class="cls-2" d="M429.96,1671.17c-.13-.08-.27-.17-.4-.25.13.08.27.17.4.25Z"/>
            <path class="cls-2" d="M546.12,1731.89s-.06-.03-.09-.04c-.26-.11-.52-.22-.78-.34.29.13.58.25.88.38Z"/>
            <path class="cls-2" d="M574.65,1743.66c-.62-.24-1.23-.48-1.85-.73.62.24,1.23.48,1.85.73Z"/>
            <path class="cls-2" d="M317.25,1588.57s.07.06.1.08c-.03-.03-.06-.05-.09-.08,0,0,0,0,0,0Z"/>
            <path class="cls-2" d="M447.54,1681.79c-.53-.31-1.06-.63-1.59-.94.53.31,1.06.63,1.59.94Z"/>
            <path class="cls-2" d="M483.09,1701.64c-.47-.25-.94-.5-1.41-.75-.09-.05-.18-.1-.28-.15.56.3,1.12.59,1.69.89Z"/>
            <path class="cls-2" d="M439.09,1676.75c-.2-.12-.4-.24-.6-.37-.25-.15-.51-.31-.76-.46.46.28.91.55,1.37.83Z"/>
            <path class="cls-2" d="M555.67,1735.96c-.63-.26-1.26-.53-1.89-.8.63.27,1.26.53,1.89.8Z"/>
            <path class="cls-2" d="M348.31,1614.09c-.34-.27-.69-.54-1.03-.81-.03-.03-.07-.05-.1-.08.38.3.76.6,1.14.9Z"/>
            <path class="cls-2" d="M593.33,1750.75c-.38-.14-.77-.28-1.15-.42.38.14.77.28,1.15.42Z"/>
            <path class="cls-2" d="M380.15,1637.96c-.06-.04-.12-.09-.19-.13.06.04.12.09.19.13Z"/>
            <path class="cls-2" d="M465.28,1691.96c-.62-.35-1.25-.7-1.87-1.05.62.35,1.25.7,1.87,1.05Z"/>
            <path class="cls-2" d="M325.18,1595.31c-.41-.35-.82-.7-1.24-1.04.41.35.82.7,1.24,1.04Z"/>
            <path class="cls-2" d="M583.46,1747.06c-.51-.19-1.01-.39-1.51-.58.5.19,1.01.39,1.51.58Z"/>
            <path class="cls-2" d="M333.07,1601.85c-.17-.14-.33-.27-.5-.41-.17-.14-.33-.27-.5-.41.33.27.67.55,1,.82Z"/>
            <path class="cls-2" d="M421.49,1665.86c-.15-.1-.31-.2-.46-.3.16.1.31.2.46.3Z"/>
            <path class="cls-2" d="M473.21,1696.34s-.07-.04-.1-.06c.03.02.07.04.1.06Z"/>
            <path class="cls-2" d="M341.02,1608.3c-.59-.47-1.17-.94-1.76-1.41.58.47,1.17.94,1.76,1.41Z"/>
            <path class="cls-2" d="M372.79,1632.63c-.39-.28-.78-.57-1.17-.85.39.28.78.57,1.17.85Z"/>
            <path class="cls-2" d="M500.43,1710.58c-.2-.1-.41-.2-.61-.3.2.1.41.2.61.3Z"/>
            <path class="cls-2" d="M491.41,1705.99c-.14-.07-.28-.14-.41-.21-.14-.07-.28-.14-.42-.22.28.14.56.29.84.43Z"/>
            <path class="cls-2" d="M357,1620.82c-.59-.45-1.18-.9-1.77-1.36.59.45,1.18.91,1.77,1.36Z"/>
            <path class="cls-2" d="M456.49,1686.99c-.36-.2-.71-.41-1.07-.61.35.2.71.41,1.07.61Z"/>
            <path class="cls-2" d="M364.55,1626.54c-.13-.1-.26-.2-.39-.29-.26-.2-.52-.39-.78-.58.39.29.78.58,1.17.88Z"/>
            <path class="cls-2" d="M536.51,1727.67c-.29-.13-.57-.26-.86-.39-.12-.05-.24-.11-.36-.16.41.18.81.37,1.22.55Z"/>
            <path class="cls-11" d="M490.99,1705.77c-.36-.18-.71-.37-1.07-.55.21.11.43.23.64.34.14.07.28.14.42.22Z"/>
            <path class="cls-2" d="M490.99,1705.77c-.36-.18-.71-.37-1.07-.55.21.11.43.23.64.34.14.07.28.14.42.22Z"/>
            <path class="cls-11" d="M536.74,1727.77c-.37-.16-.73-.33-1.1-.49.29.13.58.26.86.39.08.03.16.07.23.1Z"/>
            <path class="cls-2" d="M536.74,1727.77c-.37-.16-.73-.33-1.1-.49.29.13.58.26.86.39.08.03.16.07.23.1Z"/>
            <path class="cls-11" d="M317.35,1588.66c.47.41.95.81,1.43,1.21-.5-.43-1-.86-1.5-1.29,0,0-.01,0-.02,0,.03.03.06.06.09.08Z"/>
            <path class="cls-2" d="M317.35,1588.66c.47.41.95.81,1.43,1.21-.5-.43-1-.86-1.5-1.29,0,0-.01,0-.02,0,.03.03.06.06.09.08Z"/>
            <path class="cls-11" d="M421.49,1665.86c.28.18.57.35.85.53-.66-.42-1.31-.83-1.97-1.25.22.14.44.28.65.42.16.1.31.2.46.3Z"/>
            <path class="cls-2" d="M421.49,1665.86c.28.18.57.35.85.53-.66-.42-1.31-.83-1.97-1.25.22.14.44.28.65.42.16.1.31.2.46.3Z"/>
            <path class="cls-11" d="M357,1620.82c.09.07.19.14.28.21-.72-.55-1.44-1.1-2.16-1.66.04.03.07.06.11.08.59.45,1.18.91,1.77,1.36Z"/>
            <path class="cls-2" d="M357,1620.82c.09.07.19.14.28.21-.72-.55-1.44-1.1-2.16-1.66.04.03.07.06.11.08.59.45,1.18.91,1.77,1.36Z"/>
            <path class="cls-11" d="M341.02,1608.3c.12.1.24.19.36.29-.79-.63-1.57-1.26-2.36-1.89.08.07.16.13.24.2.58.47,1.17.94,1.76,1.41Z"/>
            <path class="cls-2" d="M341.02,1608.3c.12.1.24.19.36.29-.79-.63-1.57-1.26-2.36-1.89.08.07.16.13.24.2.58.47,1.17.94,1.76,1.41Z"/>
            <path class="cls-11" d="M325.18,1595.31c.15.12.3.24.44.37-.78-.65-1.55-1.31-2.33-1.96.22.18.43.37.65.55.41.35.82.7,1.24,1.04Z"/>
            <path class="cls-2" d="M325.18,1595.31c.15.12.3.24.44.37-.78-.65-1.55-1.31-2.33-1.96.22.18.43.37.65.55.41.35.82.7,1.24,1.04Z"/>
            <path class="cls-11" d="M380.15,1637.96c.28.2.57.4.85.6-.71-.51-1.42-1.02-2.13-1.53.37.26.73.53,1.09.79.06.04.12.09.19.13Z"/>
            <path class="cls-2" d="M380.15,1637.96c.28.2.57.4.85.6-.71-.51-1.42-1.02-2.13-1.53.37.26.73.53,1.09.79.06.04.12.09.19.13Z"/>
            <path class="cls-11" d="M372.79,1632.63c.09.06.18.13.26.19-.5-.37-1.01-.73-1.51-1.1.03.02.05.04.08.06.39.28.78.57,1.17.85Z"/>
            <path class="cls-2" d="M372.79,1632.63c.09.06.18.13.26.19-.5-.37-1.01-.73-1.51-1.1.03.02.05.04.08.06.39.28.78.57,1.17.85Z"/>
            <path class="cls-11" d="M364.16,1626.24c-.53-.4-1.07-.8-1.6-1.21.27.21.55.42.82.62.26.2.52.39.78.58Z"/>
            <path class="cls-2" d="M364.16,1626.24c-.53-.4-1.07-.8-1.6-1.21.27.21.55.42.82.62.26.2.52.39.78.58Z"/>
            <path class="cls-11" d="M387.51,1643.17c.26.18.52.37.79.55-.26-.18-.52-.37-.79-.55Z"/>
            <path class="cls-2" d="M387.51,1643.17c.26.18.52.37.79.55-.26-.18-.52-.37-.79-.55Z"/>
            <path class="cls-11" d="M403.48,1654.11c.58.39,1.16.78,1.74,1.17-.58-.39-1.16-.78-1.74-1.17Z"/>
            <path class="cls-2" d="M403.48,1654.11c.58.39,1.16.78,1.74,1.17-.58-.39-1.16-.78-1.74-1.17Z"/>
            <path class="cls-11" d="M412.7,1660.2c.4.26.81.52,1.22.79-.4-.26-.81-.52-1.22-.79Z"/>
            <path class="cls-2" d="M412.7,1660.2c.4.26.81.52,1.22.79-.4-.26-.81-.52-1.22-.79Z"/>
            <path class="cls-11" d="M507.9,1714.28c.62.3,1.24.61,1.86.91-.62-.3-1.24-.6-1.86-.91Z"/>
            <path class="cls-2" d="M507.9,1714.28c.62.3,1.24.61,1.86.91-.62-.3-1.24-.6-1.86-.91Z"/>
            <path class="cls-11" d="M395.62,1648.79c.65.44,1.3.88,1.94,1.32-.65-.44-1.3-.88-1.94-1.32Z"/>
            <path class="cls-2" d="M395.62,1648.79c.65.44,1.3.88,1.94,1.32-.65-.44-1.3-.88-1.94-1.32Z"/>
            <path class="cls-11" d="M526.4,1723.08c.59.27,1.17.54,1.76.81-.59-.27-1.17-.54-1.76-.81Z"/>
            <path class="cls-2" d="M526.4,1723.08c.59.27,1.17.54,1.76.81-.59-.27-1.17-.54-1.76-.81Z"/>
            <path class="cls-11" d="M333.93,1602.55c-.45-.37-.91-.74-1.36-1.11.17.14.33.27.5.41.29.23.57.46.86.7Z"/>
            <path class="cls-2" d="M333.93,1602.55c-.45-.37-.91-.74-1.36-1.11.17.14.33.27.5.41.29.23.57.46.86.7Z"/>
            <path class="cls-11" d="M347.28,1613.28c-.1-.08-.19-.15-.29-.23.06.05.12.1.18.14.03.03.07.06.1.08Z"/>
            <path class="cls-2" d="M347.28,1613.28c-.1-.08-.19-.15-.29-.23.06.05.12.1.18.14.03.03.07.06.1.08Z"/>
            <path class="cls-11" d="M481.68,1700.89c-.11-.06-.22-.12-.33-.18.02,0,.04.02.06.03.09.05.18.1.28.15Z"/>
            <path class="cls-2" d="M481.68,1700.89c-.11-.06-.22-.12-.33-.18.02,0,.04.02.06.03.09.05.18.1.28.15Z"/>
            <path class="cls-11" d="M546.31,1731.98c-.1-.04-.19-.08-.29-.12.03.01.06.03.09.04.06.03.13.06.2.08Z"/>
            <path class="cls-2" d="M546.31,1731.98c-.1-.04-.19-.08-.29-.12.03.01.06.03.09.04.06.03.13.06.2.08Z"/>
            <path class="cls-11" d="M439.53,1677.02c-.35-.21-.7-.42-1.05-.63.2.12.4.25.6.37.15.09.3.18.44.26Z"/>
            <path class="cls-2" d="M439.53,1677.02c-.35-.21-.7-.42-1.05-.63.2.12.4.25.6.37.15.09.3.18.44.26Z"/>
            <path class="cls-11" d="M500.43,1710.58c.07.04.14.07.21.1-.34-.17-.67-.33-1.01-.5.06.03.12.06.19.1.2.1.41.2.61.3Z"/>
            <path class="cls-2" d="M500.43,1710.58c.07.04.14.07.21.1-.34-.17-.67-.33-1.01-.5.06.03.12.06.19.1.2.1.41.2.61.3Z"/>
            <path class="cls-2" d="M546.02,1731.85c-.91-.39-1.81-.79-2.72-1.19.65.28,1.29.57,1.94.85.26.11.52.22.78.34Z"/>
            <path class="cls-2" d="M546.02,1731.85c-.91-.39-1.81-.79-2.72-1.19.65.28,1.29.57,1.94.85.26.11.52.22.78.34Z"/>
            <path class="cls-2" d="M555.67,1735.96s.06.03.1.04c-1.1-.46-2.19-.92-3.28-1.39.43.18.86.37,1.29.55.63.27,1.26.53,1.89.8Z"/>
            <path class="cls-2" d="M555.67,1735.96s.06.03.1.04c-1.1-.46-2.19-.92-3.28-1.39.43.18.86.37,1.29.55.63.27,1.26.53,1.89.8Z"/>
            <path class="cls-2" d="M349,1614.63c-.57-.45-1.15-.9-1.72-1.35.34.27.69.54,1.03.81.23.18.46.36.69.54Z"/>
            <path class="cls-2" d="M349,1614.63c-.57-.45-1.15-.9-1.72-1.35.34.27.69.54,1.03.81.23.18.46.36.69.54Z"/>
            <path class="cls-2" d="M332.57,1601.44c-.36-.3-.72-.59-1.08-.89.19.16.39.32.58.48.17.14.33.27.5.41Z"/>
            <path class="cls-2" d="M332.57,1601.44c-.36-.3-.72-.59-1.08-.89.19.16.39.32.58.48.17.14.33.27.5.41Z"/>
            <path class="cls-2" d="M465.28,1691.96c.19.11.38.21.57.32-.85-.47-1.7-.95-2.55-1.42.03.02.07.04.1.06.62.35,1.25.7,1.87,1.05Z"/>
            <path class="cls-2" d="M465.28,1691.96c.19.11.38.21.57.32-.85-.47-1.7-.95-2.55-1.42.03.02.07.04.1.06.62.35,1.25.7,1.87,1.05Z"/>
            <path class="cls-2" d="M492.46,1706.52c-.49-.25-.98-.5-1.47-.75.14.07.28.14.41.21.35.18.7.36,1.05.54Z"/>
            <path class="cls-2" d="M492.46,1706.52c-.49-.25-.98-.5-1.47-.75.14.07.28.14.41.21.35.18.7.36,1.05.54Z"/>
            <path class="cls-2" d="M483.72,1701.97c-.68-.36-1.36-.72-2.04-1.08.47.25.94.5,1.41.75.21.11.42.22.63.33Z"/>
            <path class="cls-2" d="M483.72,1701.97c-.68-.36-1.36-.72-2.04-1.08.47.25.94.5,1.41.75.21.11.42.22.63.33Z"/>
            <path class="cls-2" d="M561.93,1738.55c1.18.49,2.37.97,3.55,1.45-1.19-.48-2.37-.97-3.55-1.45Z"/>
            <path class="cls-2" d="M561.93,1738.55c1.18.49,2.37.97,3.55,1.45-1.19-.48-2.37-.97-3.55-1.45Z"/>
            <path class="cls-2" d="M447.54,1681.79c.14.08.29.17.43.25-.78-.46-1.56-.92-2.34-1.38.11.06.21.13.32.19.53.31,1.06.63,1.59.94Z"/>
            <path class="cls-2" d="M447.54,1681.79c.14.08.29.17.43.25-.78-.46-1.56-.92-2.34-1.38.11.06.21.13.32.19.53.31,1.06.63,1.59.94Z"/>
            <path class="cls-2" d="M364.97,1626.84c-.27-.2-.54-.4-.8-.6.13.1.26.2.39.29.14.1.28.2.42.31Z"/>
            <path class="cls-2" d="M364.97,1626.84c-.27-.2-.54-.4-.8-.6.13.1.26.2.39.29.14.1.28.2.42.31Z"/>
            <path class="cls-2" d="M429.96,1671.17c.1.06.2.12.3.18-.51-.32-1.02-.64-1.53-.95.28.17.55.35.83.52.13.08.27.17.4.25Z"/>
            <path class="cls-2" d="M429.96,1671.17c.1.06.2.12.3.18-.51-.32-1.02-.64-1.53-.95.28.17.55.35.83.52.13.08.27.17.4.25Z"/>
            <path class="cls-2" d="M583.46,1747.06c.53.2,1.06.4,1.6.6-1.29-.49-2.57-.97-3.85-1.47.25.1.5.19.74.29.5.19,1.01.39,1.51.58Z"/>
            <path class="cls-2" d="M583.46,1747.06c.53.2,1.06.4,1.6.6-1.29-.49-2.57-.97-3.85-1.47.25.1.5.19.74.29.5.19,1.01.39,1.51.58Z"/>
            <path class="cls-2" d="M535.65,1727.28c-.29-.13-.57-.26-.86-.39.17.08.33.15.5.23.12.05.24.11.36.16Z"/>
            <path class="cls-2" d="M535.65,1727.28c-.29-.13-.57-.26-.86-.39.17.08.33.15.5.23.12.05.24.11.36.16Z"/>
            <path class="cls-2" d="M438.48,1676.39c-.48-.29-.96-.58-1.44-.87.23.14.45.28.68.41.25.15.51.31.76.46Z"/>
            <path class="cls-2" d="M438.48,1676.39c-.48-.29-.96-.58-1.44-.87.23.14.45.28.68.41.25.15.51.31.76.46Z"/>
            <path class="cls-2" d="M574.65,1743.66c.2.08.4.15.6.23-1.25-.49-2.49-.98-3.73-1.47.43.17.86.35,1.29.52.62.24,1.23.48,1.85.73Z"/>
            <path class="cls-2" d="M574.65,1743.66c.2.08.4.15.6.23-1.25-.49-2.49-.98-3.73-1.47.43.17.86.35,1.29.52.62.24,1.23.48,1.85.73Z"/>
            <path class="cls-2" d="M593.33,1750.75c.52.19,1.05.38,1.57.57-1.31-.48-2.62-.95-3.92-1.44.4.15.8.3,1.2.45.38.14.77.28,1.15.42Z"/>
            <path class="cls-2" d="M593.33,1750.75c.52.19,1.05.38,1.57.57-1.31-.48-2.62-.95-3.92-1.44.4.15.8.3,1.2.45.38.14.77.28,1.15.42Z"/>
            <path class="cls-2" d="M473.21,1696.34c.53.29,1.07.57,1.6.86-.84-.45-1.67-.91-2.51-1.36.27.15.53.3.8.44.03.02.07.04.1.06Z"/>
            <path class="cls-2" d="M473.21,1696.34c.53.29,1.07.57,1.6.86-.84-.45-1.67-.91-2.51-1.36.27.15.53.3.8.44.03.02.07.04.1.06Z"/>
            <path class="cls-2" d="M456.49,1686.99c.14.08.27.15.41.23-.83-.48-1.66-.95-2.49-1.43.34.2.68.4,1.02.59.35.2.71.41,1.07.61Z"/>
            <path class="cls-2" d="M456.49,1686.99c.14.08.27.15.41.23-.83-.48-1.66-.95-2.49-1.43.34.2.68.4,1.02.59.35.2.71.41,1.07.61Z"/>
            <path class="cls-11" d="M1438.16,1565.01c-56.64,5.1-109.53,29.28-165.78,36.87-58.55,7.9-118,11.57-177.07,11.38-58.05-.19-116.09-5.32-174.14-4.13-29.32.61-58.6,3.44-87.2,10.11-29.21,6.82-58.1,14.63-87.06,22.39-26.96,7.23-54.13,13.94-81.84,17.59-28.28,3.73-56.56,3.23-84.88.28-7.05-.73-14.07-1.63-21.08-2.64-.52,1.54-1.42,3.02-2.71,4.32-4.87,4.94-17.56,9.28-22.78,2.53-2.5-3.23-2.17-7.53-.56-11.21-35.2-6.67-69.85-16.27-104.04-26.98-37.3-11.69-74.41-24.76-111.76-36.95.5.43,1,.86,1.5,1.29,1.5,1.29,3.01,2.57,4.52,3.85.77.65,1.55,1.31,2.33,1.96,1.95,1.63,3.9,3.26,5.87,4.88.36.3.72.59,1.08.89.45.37.91.74,1.36,1.11,1.69,1.38,3.39,2.76,5.09,4.14.78.63,1.57,1.26,2.36,1.89,1.87,1.5,3.74,2.99,5.62,4.47.1.08.19.15.29.23.57.45,1.15.9,1.72,1.35,2.03,1.59,4.07,3.17,6.12,4.75.72.55,1.44,1.1,2.16,1.66,1.75,1.34,3.51,2.68,5.28,4.01.53.4,1.07.81,1.6,1.21.27.2.54.4.8.6,2.19,1.64,4.38,3.26,6.58,4.88.5.37,1.01.73,1.51,1.1,1.93,1.41,3.87,2.82,5.81,4.21.71.51,1.42,1.02,2.13,1.53,2.16,1.54,4.33,3.08,6.5,4.6.26.18.52.37.79.55,2.43,1.7,4.87,3.39,7.32,5.06.65.44,1.3.88,1.94,1.32,1.97,1.34,3.94,2.67,5.92,4,.58.39,1.16.78,1.74,1.17,2.48,1.65,4.98,3.3,7.48,4.93.4.26.81.52,1.22.79,2.14,1.39,4.29,2.78,6.45,4.15.66.42,1.31.83,1.97,1.25,2.13,1.35,4.26,2.68,6.4,4.01.51.32,1.02.64,1.53.95,2.25,1.4,4.52,2.78,6.79,4.16.48.29.96.58,1.44.87.35.21.7.42,1.05.63,2.03,1.22,4.06,2.44,6.1,3.64.78.46,1.56.92,2.34,1.38,2.14,1.26,4.29,2.5,6.44,3.75.83.48,1.66.96,2.49,1.43,2.13,1.22,4.27,2.43,6.41,3.63.85.48,1.7.95,2.55,1.42,2.15,1.2,4.3,2.39,6.45,3.57.83.46,1.67.91,2.51,1.36,2.17,1.18,4.35,2.35,6.53,3.51.11.06.22.12.33.18.68.36,1.36.72,2.04,1.08,2.06,1.09,4.13,2.17,6.21,3.25.36.18.71.37,1.07.55.49.25.98.5,1.47.75,2.39,1.23,4.78,2.45,7.17,3.65.34.17.67.34,1.01.5,2.41,1.21,4.83,2.41,7.26,3.6.62.3,1.24.61,1.86.91,5.52,2.69,11.06,5.32,16.64,7.89.59.27,1.17.54,1.76.81,2.2,1.01,4.41,2.01,6.62,3.01.29.13.57.26.86.39.37.16.73.33,1.1.49,2.18.97,4.37,1.93,6.56,2.89.91.4,1.81.8,2.72,1.19.1.04.19.08.29.12,2.05.89,4.11,1.76,6.17,2.64,1.09.46,2.19.93,3.28,1.39,2.05.86,4.1,1.7,6.16,2.55,1.18.49,2.37.97,3.55,1.45,2.01.81,4.02,1.62,6.03,2.41,1.24.49,2.49.98,3.73,1.47,1.98.78,3.97,1.55,5.96,2.31,1.28.49,2.57.98,3.85,1.47,1.97.75,3.95,1.49,5.92,2.22,1.31.48,2.61.96,3.92,1.44,1.57.57,3.15,1.14,4.73,1.71,94.08,33.32,195.35,51.46,300.87,51.46,234.59,0,448.17-89.63,608.48-236.5-23.51-2.92-47.13-5.1-70.81-2.97ZM584.96,1728.18c-.32,2.98-2.52,5.96-5.78,5.97-1.52,0-2.84-.77-3.86-1.84-1.15-1.21-1.36-3.1-.71-4.6.79-1.83,2.55-3.55,4.66-3.58.76-.46,1.61-.74,2.54-.7,2.52.11,3.4,2.57,3.16,4.75ZM584.95,1688.11c-3.23.06-1.03-4.3,1.4-4.35,3.23-.06,1.03,4.3-1.4,4.35ZM640.29,1713.51c-.22.71-.46,1.45-.75,2.17-.94,2.32-2.38,4.35-5.34,4.18-2.17-.12-4.12-1.43-5.62-2.99-3.45-3.57-2.96-9.86,3.09-9.6.74-.12,1.48-.22,2.25-.21,2.97.03,7.46,2.93,6.37,6.45ZM725.33,1716.07c-2.61,2.25-6.36,2.45-9.74,1.53-.15,0-.3.03-.45.04-4.66.07-9.5-3.15-10.18-7.97-.64-4.53,2.46-9.45,6.7-10.99,4.67-1.69,10.4.36,13.63,3.95,3.47,3.85,4.29,9.78.04,13.44ZM834.68,1771.18c-5.27.52-10.41-.66-13.41-4.03-2.76-3.09-4.11-7.64-4.19-11.72-.4-10.01,3.78-19.88,15.36-18.86,9.68.85,18.74,8.19,20.31,17.97,1.48,9.17-8.52,15.71-18.08,16.65ZM1027.45,1742.65c-5.71,5.78-20.56,10.86-26.67,2.96-4.34-5.61-1.42-13.95,2.91-18.62,2.55-2.75,6.17-4.76,9.99-4.74.19,0,.36.03.54.05,3.39-1.14,7.26-.93,10.91,1.23,7.23,4.25,8.15,13.22,2.31,19.13ZM1061.45,1644.57c-1.38,11.17-11.36,19.89-22.32,21.26-13.12,1.63-18.27-9.4-18.24-20.78-.09-4.65,1.26-9.87,4.27-13.49,3.28-3.96,9.06-5.51,15.07-5.14,10.9.67,22.52,7.68,21.22,18.16ZM1081.12,1720.02c-.27,2.51-2.12,5.02-4.86,5.02-1.28,0-2.39-.64-3.24-1.55-.97-1.02-1.15-2.6-.6-3.87.66-1.54,2.14-2.98,3.92-3.01.64-.39,1.35-.62,2.14-.59,2.12.09,2.85,2.16,2.66,3.99ZM1081.11,1686.32c-2.71.05-.87-3.62,1.18-3.66,2.71-.05.86,3.62-1.18,3.66ZM1127.66,1707.68c-.18.6-.39,1.22-.63,1.82-.79,1.95-2.01,3.66-4.49,3.52-1.82-.1-3.46-1.2-4.73-2.51-2.9-3-2.49-8.29,2.6-8.08.62-.1,1.25-.18,1.89-.18,2.5.02,6.27,2.46,5.36,5.43ZM1199.18,1709.83c-2.19,1.89-5.35,2.06-8.19,1.28-.13,0-.25.03-.38.03-3.92.06-7.99-2.65-8.56-6.7-.54-3.81,2.07-7.95,5.64-9.24,3.93-1.42,8.75.31,11.46,3.32,2.92,3.24,3.61,8.23.04,11.3ZM1255.74,1691.35c-4.43.44-8.75-.56-11.28-3.39-2.32-2.6-3.46-6.42-3.52-9.86-.33-8.41,3.18-16.71,12.92-15.86,8.14.71,15.76,6.89,17.08,15.11,1.24,7.71-7.16,13.21-15.2,14ZM1324.42,1661.65c-4.8,4.86-17.29,9.14-22.43,2.49-3.65-4.72-1.19-11.73,2.45-15.66,2.14-2.31,5.19-4.01,8.4-3.99.16,0,.3.03.45.04,2.85-.96,6.11-.78,9.18,1.03,6.08,3.58,6.85,11.12,1.94,16.09Z"/>
            <path class="cls-2" d="M1438.16,1565.01c-56.64,5.1-109.53,29.28-165.78,36.87-58.55,7.9-118,11.57-177.07,11.38-58.05-.19-116.09-5.32-174.14-4.13-29.32.61-58.6,3.44-87.2,10.11-29.21,6.82-58.1,14.63-87.06,22.39-26.96,7.23-54.13,13.94-81.84,17.59-28.28,3.73-56.56,3.23-84.88.28-7.05-.73-14.07-1.63-21.08-2.64-.52,1.54-1.42,3.02-2.71,4.32-4.87,4.94-17.56,9.28-22.78,2.53-2.5-3.23-2.17-7.53-.56-11.21-35.2-6.67-69.85-16.27-104.04-26.98-37.3-11.69-74.41-24.76-111.76-36.95.5.43,1,.86,1.5,1.29,1.5,1.29,3.01,2.57,4.52,3.85.77.65,1.55,1.31,2.33,1.96,1.95,1.63,3.9,3.26,5.87,4.88.36.3.72.59,1.08.89.45.37.91.74,1.36,1.11,1.69,1.38,3.39,2.76,5.09,4.14.78.63,1.57,1.26,2.36,1.89,1.87,1.5,3.74,2.99,5.62,4.47.1.08.19.15.29.23.57.45,1.15.9,1.72,1.35,2.03,1.59,4.07,3.17,6.12,4.75.72.55,1.44,1.1,2.16,1.66,1.75,1.34,3.51,2.68,5.28,4.01.53.4,1.07.81,1.6,1.21.27.2.54.4.8.6,2.19,1.64,4.38,3.26,6.58,4.88.5.37,1.01.73,1.51,1.1,1.93,1.41,3.87,2.82,5.81,4.21.71.51,1.42,1.02,2.13,1.53,2.16,1.54,4.33,3.08,6.5,4.6.26.18.52.37.79.55,2.43,1.7,4.87,3.39,7.32,5.06.65.44,1.3.88,1.94,1.32,1.97,1.34,3.94,2.67,5.92,4,.58.39,1.16.78,1.74,1.17,2.48,1.65,4.98,3.3,7.48,4.93.4.26.81.52,1.22.79,2.14,1.39,4.29,2.78,6.45,4.15.66.42,1.31.83,1.97,1.25,2.13,1.35,4.26,2.68,6.4,4.01.51.32,1.02.64,1.53.95,2.25,1.4,4.52,2.78,6.79,4.16.48.29.96.58,1.44.87.35.21.7.42,1.05.63,2.03,1.22,4.06,2.44,6.1,3.64.78.46,1.56.92,2.34,1.38,2.14,1.26,4.29,2.5,6.44,3.75.83.48,1.66.96,2.49,1.43,2.13,1.22,4.27,2.43,6.41,3.63.85.48,1.7.95,2.55,1.42,2.15,1.2,4.3,2.39,6.45,3.57.83.46,1.67.91,2.51,1.36,2.17,1.18,4.35,2.35,6.53,3.51.11.06.22.12.33.18.68.36,1.36.72,2.04,1.08,2.06,1.09,4.13,2.17,6.21,3.25.36.18.71.37,1.07.55.49.25.98.5,1.47.75,2.39,1.23,4.78,2.45,7.17,3.65.34.17.67.34,1.01.5,2.41,1.21,4.83,2.41,7.26,3.6.62.3,1.24.61,1.86.91,5.52,2.69,11.06,5.32,16.64,7.89.59.27,1.17.54,1.76.81,2.2,1.01,4.41,2.01,6.62,3.01.29.13.57.26.86.39.37.16.73.33,1.1.49,2.18.97,4.37,1.93,6.56,2.89.91.4,1.81.8,2.72,1.19.1.04.19.08.29.12,2.05.89,4.11,1.76,6.17,2.64,1.09.46,2.19.93,3.28,1.39,2.05.86,4.1,1.7,6.16,2.55,1.18.49,2.37.97,3.55,1.45,2.01.81,4.02,1.62,6.03,2.41,1.24.49,2.49.98,3.73,1.47,1.98.78,3.97,1.55,5.96,2.31,1.28.49,2.57.98,3.85,1.47,1.97.75,3.95,1.49,5.92,2.22,1.31.48,2.61.96,3.92,1.44,1.57.57,3.15,1.14,4.73,1.71,94.08,33.32,195.35,51.46,300.87,51.46,234.59,0,448.17-89.63,608.48-236.5-23.51-2.92-47.13-5.1-70.81-2.97ZM584.96,1728.18c-.32,2.98-2.52,5.96-5.78,5.97-1.52,0-2.84-.77-3.86-1.84-1.15-1.21-1.36-3.1-.71-4.6.79-1.83,2.55-3.55,4.66-3.58.76-.46,1.61-.74,2.54-.7,2.52.11,3.4,2.57,3.16,4.75ZM584.95,1688.11c-3.23.06-1.03-4.3,1.4-4.35,3.23-.06,1.03,4.3-1.4,4.35ZM640.29,1713.51c-.22.71-.46,1.45-.75,2.17-.94,2.32-2.38,4.35-5.34,4.18-2.17-.12-4.12-1.43-5.62-2.99-3.45-3.57-2.96-9.86,3.09-9.6.74-.12,1.48-.22,2.25-.21,2.97.03,7.46,2.93,6.37,6.45ZM725.33,1716.07c-2.61,2.25-6.36,2.45-9.74,1.53-.15,0-.3.03-.45.04-4.66.07-9.5-3.15-10.18-7.97-.64-4.53,2.46-9.45,6.7-10.99,4.67-1.69,10.4.36,13.63,3.95,3.47,3.85,4.29,9.78.04,13.44ZM834.68,1771.18c-5.27.52-10.41-.66-13.41-4.03-2.76-3.09-4.11-7.64-4.19-11.72-.4-10.01,3.78-19.88,15.36-18.86,9.68.85,18.74,8.19,20.31,17.97,1.48,9.17-8.52,15.71-18.08,16.65ZM1027.45,1742.65c-5.71,5.78-20.56,10.86-26.67,2.96-4.34-5.61-1.42-13.95,2.91-18.62,2.55-2.75,6.17-4.76,9.99-4.74.19,0,.36.03.54.05,3.39-1.14,7.26-.93,10.91,1.23,7.23,4.25,8.15,13.22,2.31,19.13ZM1061.45,1644.57c-1.38,11.17-11.36,19.89-22.32,21.26-13.12,1.63-18.27-9.4-18.24-20.78-.09-4.65,1.26-9.87,4.27-13.49,3.28-3.96,9.06-5.51,15.07-5.14,10.9.67,22.52,7.68,21.22,18.16ZM1081.12,1720.02c-.27,2.51-2.12,5.02-4.86,5.02-1.28,0-2.39-.64-3.24-1.55-.97-1.02-1.15-2.6-.6-3.87.66-1.54,2.14-2.98,3.92-3.01.64-.39,1.35-.62,2.14-.59,2.12.09,2.85,2.16,2.66,3.99ZM1081.11,1686.32c-2.71.05-.87-3.62,1.18-3.66,2.71-.05.86,3.62-1.18,3.66ZM1127.66,1707.68c-.18.6-.39,1.22-.63,1.82-.79,1.95-2.01,3.66-4.49,3.52-1.82-.1-3.46-1.2-4.73-2.51-2.9-3-2.49-8.29,2.6-8.08.62-.1,1.25-.18,1.89-.18,2.5.02,6.27,2.46,5.36,5.43ZM1199.18,1709.83c-2.19,1.89-5.35,2.06-8.19,1.28-.13,0-.25.03-.38.03-3.92.06-7.99-2.65-8.56-6.7-.54-3.81,2.07-7.95,5.64-9.24,3.93-1.42,8.75.31,11.46,3.32,2.92,3.24,3.61,8.23.04,11.3ZM1255.74,1691.35c-4.43.44-8.75-.56-11.28-3.39-2.32-2.6-3.46-6.42-3.52-9.86-.33-8.41,3.18-16.71,12.92-15.86,8.14.71,15.76,6.89,17.08,15.11,1.24,7.71-7.16,13.21-15.2,14ZM1324.42,1661.65c-4.8,4.86-17.29,9.14-22.43,2.49-3.65-4.72-1.19-11.73,2.45-15.66,2.14-2.31,5.19-4.01,8.4-3.99.16,0,.3.03.45.04,2.85-.96,6.11-.78,9.18,1.03,6.08,3.58,6.85,11.12,1.94,16.09Z"/>
            <path class="cls-2" d="M1438.16,1565.01c-56.64,5.1-109.53,29.28-165.78,36.87-58.55,7.9-118,11.57-177.07,11.38-58.05-.19-116.09-5.32-174.14-4.13-29.32.61-58.6,3.44-87.2,10.11-29.21,6.82-58.1,14.63-87.06,22.39-26.96,7.23-54.13,13.94-81.84,17.59-28.28,3.73-56.56,3.23-84.88.28-7.05-.73-14.07-1.63-21.08-2.64-.52,1.54-1.42,3.02-2.71,4.32-4.87,4.94-17.56,9.28-22.78,2.53-2.5-3.23-2.17-7.53-.56-11.21-35.2-6.67-69.85-16.27-104.04-26.98-37.3-11.69-74.41-24.76-111.76-36.95.5.43,1,.86,1.5,1.29,1.5,1.29,3.01,2.57,4.52,3.85.77.65,1.55,1.31,2.33,1.96,1.95,1.63,3.9,3.26,5.87,4.88.36.3.72.59,1.08.89.45.37.91.74,1.36,1.11,1.69,1.38,3.39,2.76,5.09,4.14.78.63,1.57,1.26,2.36,1.89,1.87,1.5,3.74,2.99,5.62,4.47.1.08.19.15.29.23.57.45,1.15.9,1.72,1.35,2.03,1.59,4.07,3.17,6.12,4.75.72.55,1.44,1.1,2.16,1.66,1.75,1.34,3.51,2.68,5.28,4.01.53.4,1.07.81,1.6,1.21.27.2.54.4.8.6,2.19,1.64,4.38,3.26,6.58,4.88.5.37,1.01.73,1.51,1.1,1.93,1.41,3.87,2.82,5.81,4.21.71.51,1.42,1.02,2.13,1.53,2.16,1.54,4.33,3.08,6.5,4.6.26.18.52.37.79.55,2.43,1.7,4.87,3.39,7.32,5.06.65.44,1.3.88,1.94,1.32,1.97,1.34,3.94,2.67,5.92,4,.58.39,1.16.78,1.74,1.17,2.48,1.65,4.98,3.3,7.48,4.93.4.26.81.52,1.22.79,2.14,1.39,4.29,2.78,6.45,4.15.66.42,1.31.83,1.97,1.25,2.13,1.35,4.26,2.68,6.4,4.01.51.32,1.02.64,1.53.95,2.25,1.4,4.52,2.78,6.79,4.16.48.29.96.58,1.44.87.35.21.7.42,1.05.63,2.03,1.22,4.06,2.44,6.1,3.64.78.46,1.56.92,2.34,1.38,2.14,1.26,4.29,2.5,6.44,3.75.83.48,1.66.96,2.49,1.43,2.13,1.22,4.27,2.43,6.41,3.63.85.48,1.7.95,2.55,1.42,2.15,1.2,4.3,2.39,6.45,3.57.83.46,1.67.91,2.51,1.36,2.17,1.18,4.35,2.35,6.53,3.51.11.06.22.12.33.18.68.36,1.36.72,2.04,1.08,2.06,1.09,4.13,2.17,6.21,3.25.36.18.71.37,1.07.55.49.25.98.5,1.47.75,2.39,1.23,4.78,2.45,7.17,3.65.34.17.67.34,1.01.5,2.41,1.21,4.83,2.41,7.26,3.6.62.3,1.24.61,1.86.91,5.52,2.69,11.06,5.32,16.64,7.89.59.27,1.17.54,1.76.81,2.2,1.01,4.41,2.01,6.62,3.01.29.13.57.26.86.39.37.16.73.33,1.1.49,2.18.97,4.37,1.93,6.56,2.89.91.4,1.81.8,2.72,1.19.1.04.19.08.29.12,2.05.89,4.11,1.76,6.17,2.64,1.09.46,2.19.93,3.28,1.39,2.05.86,4.1,1.7,6.16,2.55,1.18.49,2.37.97,3.55,1.45,2.01.81,4.02,1.62,6.03,2.41,1.24.49,2.49.98,3.73,1.47,1.98.78,3.97,1.55,5.96,2.31,1.28.49,2.57.98,3.85,1.47,1.97.75,3.95,1.49,5.92,2.22,1.31.48,2.61.96,3.92,1.44,1.57.57,3.15,1.14,4.73,1.71,94.08,33.32,195.35,51.46,300.87,51.46,234.59,0,448.17-89.63,608.48-236.5-23.51-2.92-47.13-5.1-70.81-2.97ZM584.96,1728.18c-.32,2.98-2.52,5.96-5.78,5.97-1.52,0-2.84-.77-3.86-1.84-1.15-1.21-1.36-3.1-.71-4.6.79-1.83,2.55-3.55,4.66-3.58.76-.46,1.61-.74,2.54-.7,2.52.11,3.4,2.57,3.16,4.75ZM584.95,1688.11c-3.23.06-1.03-4.3,1.4-4.35,3.23-.06,1.03,4.3-1.4,4.35ZM640.29,1713.51c-.22.71-.46,1.45-.75,2.17-.94,2.32-2.38,4.35-5.34,4.18-2.17-.12-4.12-1.43-5.62-2.99-3.45-3.57-2.96-9.86,3.09-9.6.74-.12,1.48-.22,2.25-.21,2.97.03,7.46,2.93,6.37,6.45ZM725.33,1716.07c-2.61,2.25-6.36,2.45-9.74,1.53-.15,0-.3.03-.45.04-4.66.07-9.5-3.15-10.18-7.97-.64-4.53,2.46-9.45,6.7-10.99,4.67-1.69,10.4.36,13.63,3.95,3.47,3.85,4.29,9.78.04,13.44ZM834.68,1771.18c-5.27.52-10.41-.66-13.41-4.03-2.76-3.09-4.11-7.64-4.19-11.72-.4-10.01,3.78-19.88,15.36-18.86,9.68.85,18.74,8.19,20.31,17.97,1.48,9.17-8.52,15.71-18.08,16.65ZM1027.45,1742.65c-5.71,5.78-20.56,10.86-26.67,2.96-4.34-5.61-1.42-13.95,2.91-18.62,2.55-2.75,6.17-4.76,9.99-4.74.19,0,.36.03.54.05,3.39-1.14,7.26-.93,10.91,1.23,7.23,4.25,8.15,13.22,2.31,19.13ZM1061.45,1644.57c-1.38,11.17-11.36,19.89-22.32,21.26-13.12,1.63-18.27-9.4-18.24-20.78-.09-4.65,1.26-9.87,4.27-13.49,3.28-3.96,9.06-5.51,15.07-5.14,10.9.67,22.52,7.68,21.22,18.16ZM1081.12,1720.02c-.27,2.51-2.12,5.02-4.86,5.02-1.28,0-2.39-.64-3.24-1.55-.97-1.02-1.15-2.6-.6-3.87.66-1.54,2.14-2.98,3.92-3.01.64-.39,1.35-.62,2.14-.59,2.12.09,2.85,2.16,2.66,3.99ZM1081.11,1686.32c-2.71.05-.87-3.62,1.18-3.66,2.71-.05.86,3.62-1.18,3.66ZM1127.66,1707.68c-.18.6-.39,1.22-.63,1.82-.79,1.95-2.01,3.66-4.49,3.52-1.82-.1-3.46-1.2-4.73-2.51-2.9-3-2.49-8.29,2.6-8.08.62-.1,1.25-.18,1.89-.18,2.5.02,6.27,2.46,5.36,5.43ZM1199.18,1709.83c-2.19,1.89-5.35,2.06-8.19,1.28-.13,0-.25.03-.38.03-3.92.06-7.99-2.65-8.56-6.7-.54-3.81,2.07-7.95,5.64-9.24,3.93-1.42,8.75.31,11.46,3.32,2.92,3.24,3.61,8.23.04,11.3ZM1255.74,1691.35c-4.43.44-8.75-.56-11.28-3.39-2.32-2.6-3.46-6.42-3.52-9.86-.33-8.41,3.18-16.71,12.92-15.86,8.14.71,15.76,6.89,17.08,15.11,1.24,7.71-7.16,13.21-15.2,14ZM1324.42,1661.65c-4.8,4.86-17.29,9.14-22.43,2.49-3.65-4.72-1.19-11.73,2.45-15.66,2.14-2.31,5.19-4.01,8.4-3.99.16,0,.3.03.45.04,2.85-.96,6.11-.78,9.18,1.03,6.08,3.58,6.85,11.12,1.94,16.09Z"/>
            <path class="cls-1" d="M219.78,1168.81c2.93-23.66-23.32-39.48-47.93-41-13.56-.84-26.62,2.67-34.02,11.61-6.78,8.19-9.82,19.97-9.63,30.46-.07,25.7,11.56,50.62,41.18,46.93,24.76-3.08,47.28-22.78,50.41-48Z"/>
            <path class="cls-1" d="M272.75,1235.98c-.03-.33-.07-.65-.1-.98-.27-1.21-.89-2.17-1.84-2.88-1.46-1.39-3.45-2.13-5.51-2.07-1.9.06-3.74.55-5.49,1.27-1.47.63-2.76,1.51-3.88,2.64-1.2.93-2.18,2.06-2.93,3.39-.93,2-1.94,4.05-1.81,6.34.03.58.09,1.17.17,1.75-.22,1.07-.26,2.16.09,3.16.49,1.4,1.32,2.54,2.5,3.44,1.86,1.4,4.78,1.29,6.89.89,5.11-.96,10.31-5.19,11.8-10.28.61-2.08.67-3.69.32-5.84-.05-.29-.14-.56-.22-.83Z"/>
            <path class="cls-1" d="M398.07,1382.15c-2.39-.1-4.57.62-6.52,1.8-5.41.08-9.93,4.49-11.95,9.18-1.67,3.86-1.12,8.7,1.83,11.81,2.62,2.75,6.01,4.73,9.9,4.72,8.37-.02,14.01-7.67,14.84-15.33.61-5.61-1.65-11.91-8.11-12.19Z"/>
            <path class="cls-1" d="M232.04,1303.07c-6.93-4.08-14.29-4.49-20.73-2.33-.34-.02-.67-.09-1.02-.09-7.26-.03-14.14,3.79-18.98,9.01-8.21,8.86-13.76,24.7-5.53,35.36,11.59,15,39.8,5.35,50.64-5.63,11.08-11.23,9.33-28.25-4.39-36.32Z"/>
            <path class="cls-1" d="M409.75,1280.34c-6.24.11-11.87,11.31-3.6,11.16,6.24-.11,11.87-11.31,3.6-11.16Z"/>
            <path class="cls-1" d="M445.92,1062.77c-6.9-5.52-16.55-5.69-25.12-3-.39,0-.78-.06-1.17-.05-11.97.25-24.07,8.97-25.36,21.39-1.22,11.68,7.19,24.02,18.22,27.55,12.15,3.89,26.64-1.91,34.59-11.41,8.53-10.19,10.08-25.49-1.15-34.48Z"/>
            <path class="cls-1" d="M519.75,1068.14c-7.94.15-15.11,14.4-4.58,14.2,7.94-.15,15.11-14.4,4.58-14.2Z"/>
            <path class="cls-1" d="M656.02,1119c-29.73-2.6-40.44,22.73-39.43,48.41.19,10.49,3.67,22.16,10.74,30.09,7.72,8.66,20.9,11.68,34.42,10.35,24.53-2.42,50.19-19.19,46.39-42.73-4.04-25.09-27.27-43.95-52.13-46.12Z"/>
            <path class="cls-1" d="M829.37,1090.03c-4.35,4.93-4.92,12.38-2.14,18.21,3.36,7.07,10.53,13.58,18.83,13.4,3.05,1.7,6.43,2.68,10.09,2.39,9.88-.79,12.99-10.58,11.74-19.14-.79-5.42-3.17-10.78-6.77-14.93-7.43-2.33-14.84-4.55-22.21-6.69-3.68,1.32-6.9,3.77-9.54,6.76Z"/>
            <path class="cls-1" d="M531.84,1340.12c-1.96-.02-3.86.23-5.77.54-15.52-.65-16.77,15.49-7.93,24.65,3.88,4.01,8.87,7.35,14.44,7.67,7.57.43,11.29-4.77,13.69-10.73.74-1.83,1.35-3.73,1.91-5.56,2.78-9.05-8.72-16.49-16.35-16.57Z"/>
            <path class="cls-1" d="M731.34,1318.62c-10.89,3.93-18.85,16.57-17.2,28.19,1.75,12.37,14.16,20.63,26.13,20.44.39,0,.77-.07,1.17-.09,8.67,2.38,18.31,1.85,24.99-3.92,10.89-9.4,8.79-24.62-.11-34.5-8.29-9.2-22.99-14.46-34.98-10.13Z"/>
            <path class="cls-1" d="M925.39,1338.82c-10.53.19-2.85,14.17,5.09,14.03,10.53-.19,2.84-14.17-5.09-14.03Z"/>
            <path class="cls-1" d="M1008.55,1157.08c-6.78-.42-13.31,1.34-17.01,5.8-3.39,4.09-4.91,9.99-4.82,15.23-.04,12.85,5.78,25.31,20.59,23.47,12.38-1.54,23.64-11.39,25.2-24,1.46-11.83-11.66-19.74-23.96-20.5Z"/>
            <path class="cls-1" d="M1130.85,1220.24c-.03-.33-.07-.65-.1-.98-.27-1.21-.89-2.17-1.84-2.88-1.46-1.39-3.45-2.13-5.51-2.07-1.9.06-3.74.55-5.49,1.27-1.47.63-2.77,1.51-3.88,2.64-1.2.93-2.18,2.06-2.93,3.39-.93,2-1.94,4.05-1.81,6.34.03.58.09,1.17.17,1.75-.22,1.07-.26,2.16.09,3.16.49,1.4,1.32,2.54,2.5,3.44,1.86,1.4,4.78,1.29,6.89.89,5.11-.96,10.31-5.19,11.8-10.28.61-2.08.67-3.69.32-5.84-.05-.29-.14-.56-.22-.83Z"/>
            <path class="cls-1" d="M1256.16,1366.41c-2.39-.1-4.57.62-6.52,1.8-5.41.08-9.93,4.49-11.95,9.18-1.67,3.86-1.12,8.7,1.83,11.81,2.62,2.75,6.01,4.73,9.9,4.72,8.37-.02,14.01-7.67,14.84-15.33.61-5.61-1.65-11.91-8.11-12.19Z"/>
            <path class="cls-1" d="M1090.13,1287.33c-6.93-4.08-14.29-4.49-20.73-2.33-.34-.02-.67-.09-1.02-.09-7.26-.03-14.13,3.79-18.97,9.01-8.21,8.86-13.76,24.7-5.53,35.36,11.59,15,39.8,5.35,50.64-5.63,11.08-11.23,9.33-28.25-4.39-36.32Z"/>
            <path class="cls-1" d="M1267.84,1264.6c-6.24.11-11.87,11.31-3.6,11.16,6.24-.11,11.87-11.31,3.6-11.16Z"/>
            <path class="cls-1" d="M1471.99,1215.39c12.98-1.28,26.36-7.92,32.13-17.91-20.17,1.24-41.25,1.76-63.16,1.59,1.29,3.16,3.01,6.1,5.21,8.56,5.79,6.5,15.68,8.77,25.82,7.76Z"/>
            <path class="cls-1" d="M1389.94,1324.38c-1.96-.02-3.86.23-5.77.54-15.52-.65-16.77,15.49-7.93,24.65,3.88,4.01,8.87,7.35,14.44,7.67,7.57.43,11.29-4.77,13.69-10.73.74-1.83,1.35-3.73,1.92-5.56,2.78-9.05-8.72-16.49-16.35-16.57Z"/>
            <path class="cls-1" d="M1589.43,1302.88c-10.9,3.93-18.85,16.57-17.2,28.19,1.75,12.37,14.16,20.63,26.13,20.44.39,0,.78-.07,1.17-.09,8.67,2.38,18.31,1.85,24.99-3.92,10.89-9.4,8.79-24.62-.11-34.5-8.29-9.2-22.99-14.46-34.98-10.13Z"/>
            <path class="cls-1" d="M300.34,1475.67c-3.95-.24-7.75.78-9.9,3.38-1.97,2.38-2.86,5.82-2.8,8.87-.02,7.48,3.37,14.73,11.99,13.66,7.21-.9,13.76-6.63,14.67-13.97.85-6.89-6.79-11.49-13.95-11.93Z"/>
            <path class="cls-1" d="M313.89,1530.85c-.02-.15-.03-.29-.05-.44-.12-.54-.4-.98-.83-1.3-.66-.62-1.55-.96-2.48-.93-.86.03-1.68.25-2.47.57-.66.28-1.24.68-1.74,1.19-.54.42-.98.93-1.32,1.53-.42.9-.87,1.82-.81,2.85.02.26.04.53.08.79-.1.48-.12.97.04,1.42.22.63.59,1.14,1.13,1.55.83.63,2.15.58,3.1.4,2.3-.43,4.64-2.34,5.31-4.62.27-.94.3-1.66.14-2.63-.02-.13-.06-.25-.1-.37Z"/>
            <path class="cls-1" d="M252.14,1457.48c-1.18-2.64-2.94-4.92-6.33-4.6-2.5.23-4.69,1.82-6.36,3.69-3.82,4.26-3,11.49,3.97,10.95.86.11,1.72.19,2.6.15,3.43-.16,8.48-3.69,7.08-7.72-.28-.81-.59-1.66-.95-2.47Z"/>
            <path class="cls-1" d="M533.63,1663.72c5.21,6.75,17.9,2.41,22.78-2.53,1.29-1.3,2.18-2.78,2.71-4.32,1.5-4.42-.11-9.32-4.68-12.02-3.12-1.84-6.43-2.02-9.32-1.05-.15-.01-.3-.04-.46-.04-3.26-.02-6.36,1.7-8.53,4.05-1.2,1.3-2.27,2.92-3.04,4.69-1.61,3.68-1.94,7.97.56,11.21Z"/>
            <path class="cls-1" d="M375.5,1550.81c-2.8.05-5.34,5.09-1.62,5.02,2.81-.05,5.34-5.09,1.62-5.02Z"/>
            <path class="cls-1" d="M391.77,1452.95c-3.1-2.48-7.44-2.56-11.3-1.35-.17,0-.35-.03-.53-.02-5.38.11-10.82,4.03-11.41,9.62-.55,5.25,3.23,10.8,8.19,12.39,5.46,1.75,11.98-.86,15.56-5.13,3.84-4.58,4.53-11.46-.52-15.51Z"/>
            <path class="cls-1" d="M424.98,1455.37c-3.57.07-6.8,6.47-2.06,6.39,3.57-.07,6.8-6.47,2.06-6.39Z"/>
            <path class="cls-1" d="M479.58,1510.27c-13.37-1.17-18.19,10.22-17.73,21.77.09,4.72,1.65,9.96,4.83,13.53,3.47,3.89,9.4,5.26,15.48,4.66,11.03-1.09,22.57-8.63,20.87-19.22-1.82-11.29-12.27-19.77-23.45-20.74Z"/>
            <path class="cls-1" d="M570.94,1461.71c-2.68.09-4.97,1.54-6.71,3.5-1.96,2.22-2.21,5.57-.96,8.19,1.51,3.18,4.74,6.11,8.47,6.03,1.37.76,2.89,1.21,4.54,1.07,4.45-.35,5.84-4.76,5.28-8.61-.77-5.26-4.85-10.39-10.62-10.19Z"/>
            <path class="cls-1" d="M430.42,1577.69c-.88,0-1.74.1-2.59.24-6.98-.29-7.54,6.97-3.56,11.09,1.74,1.81,3.99,3.31,6.5,3.45,3.41.19,5.08-2.15,6.16-4.83.33-.82.61-1.68.86-2.5,1.25-4.07-3.92-7.42-7.35-7.45Z"/>
            <path class="cls-1" d="M543.97,1575.92c-2.45.88-4.24,3.73-3.87,6.34.39,2.78,3.18,4.64,5.88,4.6.09,0,.17-.02.26-.02,1.95.54,4.12.42,5.62-.88,2.45-2.11,1.98-5.54-.02-7.76-1.87-2.07-5.17-3.25-7.87-2.28Z"/>
            <path class="cls-1" d="M607.42,1577.11c-4.74.09-1.28,6.37,2.29,6.31,4.74-.09,1.28-6.37-2.29-6.31Z"/>
            <path class="cls-1" d="M676,1493.56c1.32-10.64-10.49-17.76-21.55-18.44-6.1-.38-11.97,1.2-15.3,5.22-3.05,3.68-4.42,8.98-4.33,13.7-.03,11.56,5.2,22.77,18.52,21.11,11.13-1.39,21.27-10.24,22.67-21.59Z"/>
            <path class="cls-1" d="M699.83,1523.78c-.02-.15-.03-.29-.05-.44-.12-.54-.4-.98-.83-1.3-.66-.62-1.55-.96-2.48-.93-.85.03-1.68.25-2.47.57-.66.28-1.24.68-1.74,1.19-.54.42-.98.93-1.32,1.53-.42.9-.87,1.82-.81,2.85.01.26.04.53.08.79-.1.48-.12.97.04,1.42.22.63.59,1.14,1.12,1.55.84.63,2.15.58,3.1.4,2.3-.43,4.64-2.34,5.31-4.62.27-.94.3-1.66.15-2.63-.02-.13-.06-.25-.1-.37Z"/>
            <path class="cls-1" d="M756.19,1589.52c-1.08-.05-2.06.28-2.93.81-2.44.04-4.46,2.02-5.38,4.13-.75,1.74-.51,3.91.82,5.31,1.18,1.24,2.7,2.13,4.45,2.12,3.77,0,6.3-3.45,6.68-6.89.27-2.52-.74-5.36-3.65-5.48Z"/>
            <path class="cls-1" d="M629.35,1460.43c.86.11,1.72.19,2.6.15,3.43-.16,8.48-3.69,7.08-7.72-.28-.81-.59-1.66-.95-2.47-.54-1.21-1.21-2.34-2.09-3.18-1.05-1-2.4-1.59-4.24-1.41-2.34.22-4.4,1.62-6.03,3.34-.11.12-.22.23-.33.35-3.82,4.26-3,11.49,3.97,10.95Z"/>
            <path class="cls-1" d="M682.92,1630.58c-3.12-1.84-6.43-2.02-9.32-1.05-.16-.01-.3-.04-.46-.04-3.27-.02-6.36,1.7-8.53,4.05-3.69,3.99-6.19,11.11-2.49,15.9,5.21,6.75,17.9,2.41,22.77-2.53,4.98-5.05,4.2-12.7-1.97-16.34Z"/>
            <path class="cls-1" d="M761.44,1543.73c-2.81.05-5.34,5.09-1.62,5.02,2.81-.05,5.34-5.09,1.62-5.02Z"/>
            <path class="cls-1" d="M777.71,1445.87c-3.1-2.48-7.44-2.56-11.3-1.35-.18,0-.35-.03-.52-.02-5.38.11-10.82,4.03-11.41,9.62-.55,5.25,3.23,10.8,8.2,12.39,5.46,1.75,11.98-.86,15.56-5.13,3.84-4.58,4.53-11.46-.52-15.51Z"/>
            <path class="cls-1" d="M810.91,1448.29c-3.57.07-6.8,6.47-2.06,6.39,3.57-.07,6.8-6.47,2.06-6.39Z"/>
            <path class="cls-1" d="M865.51,1503.2c-13.37-1.17-18.19,10.22-17.73,21.77.09,4.72,1.65,9.96,4.83,13.53,3.47,3.89,9.4,5.26,15.48,4.66,11.03-1.09,22.57-8.63,20.87-19.22-1.82-11.29-12.27-19.77-23.45-20.74Z"/>
            <path class="cls-1" d="M956.88,1454.63c-2.69.09-4.97,1.54-6.71,3.5-1.96,2.22-2.21,5.57-.96,8.19,1.51,3.18,4.74,6.11,8.47,6.03,1.37.76,2.89,1.21,4.54,1.07,4.45-.35,5.84-4.76,5.28-8.61-.77-5.26-4.85-10.39-10.62-10.19Z"/>
            <path class="cls-1" d="M816.35,1570.61c-.88,0-1.74.1-2.59.24-6.98-.29-7.54,6.97-3.56,11.09,1.74,1.81,3.99,3.31,6.49,3.45,3.41.19,5.08-2.15,6.16-4.83.33-.82.61-1.68.86-2.5,1.25-4.07-3.92-7.42-7.36-7.45Z"/>
            <path class="cls-1" d="M906.08,1560.94c-4.9,1.77-8.48,7.45-7.73,12.68.79,5.56,6.37,9.28,11.75,9.19.17,0,.35-.03.52-.04,3.9,1.07,8.23.83,11.24-1.76,4.9-4.23,3.95-11.07-.05-15.52-3.73-4.14-10.34-6.5-15.74-4.56Z"/>
            <path class="cls-1" d="M1083.62,1462.75c-8.08-.91-13.38,8.1-13.81,16.5-.24,4.63,1.01,9.07,4.08,11.56,2.82,2.28,6.85,3.28,10.43,3.18,8.77-.07,17.22-4.13,15.86-14.22-1.14-8.43-7.94-16.05-16.56-17.02Z"/>
            <path class="cls-1" d="M1137.83,1462.69c-1.1-.31-1.95-.33-3.08-.14-.15.03-.29.08-.44.12-.17.02-.34.04-.52.06-.64.15-1.14.48-1.51.99-.72.78-1.11,1.83-1.06,2.91.04,1,.31,1.97.7,2.89.34.77.81,1.45,1.41,2.03.49.63,1.1,1.14,1.81,1.53,1.06.48,2.14,1,3.35.92.31-.02.62-.05.92-.1.56.11,1.14.12,1.67-.06.74-.27,1.33-.71,1.8-1.34.73-.99.65-2.53.43-3.64-.53-2.69-2.8-5.41-5.48-6.16Z"/>
            <path class="cls-1" d="M1051.97,1534.8c-.95.34-1.94.71-2.88,1.15-3.08,1.41-5.73,3.5-5.31,7.48.31,2.93,2.19,5.47,4.4,7.41,5.04,4.43,13.51,3.37,12.78-4.79.12-1.01.2-2.02.14-3.05-.23-4.02-4.43-9.89-9.13-8.2Z"/>
            <path class="cls-1" d="M1322.48,1645.56c-3.07-1.81-6.33-1.99-9.18-1.03-.15-.01-.3-.04-.45-.04-3.22-.02-6.26,1.68-8.4,3.99-3.64,3.92-6.09,10.94-2.45,15.66,5.13,6.64,17.63,2.37,22.43-2.49,4.91-4.97,4.13-12.51-1.94-16.09Z"/>
            <path class="cls-1" d="M1315.11,1500.01c-2.76.05-5.26,5.01-1.59,4.94,2.76-.05,5.26-5.01,1.59-4.94Z"/>
            <path class="cls-1" d="M1319.2,1462.97c3.78-4.52,4.46-11.29-.51-15.27-3.05-2.45-7.33-2.52-11.12-1.33-.17,0-.35-.03-.52-.02-5.3.11-10.66,3.97-11.23,9.47-.54,5.17,3.18,10.64,8.07,12.2,5.38,1.72,11.8-.85,15.32-5.05Z"/>
            <path class="cls-1" d="M1363.83,1406.03c-3.52.06-6.69,6.38-2.03,6.29,3.52-.06,6.69-6.38,2.03-6.29Z"/>
            <path class="cls-1" d="M1417.59,1460.1c-13.17-1.15-17.91,10.07-17.46,21.44.09,4.65,1.63,9.81,4.76,13.32,3.42,3.84,9.26,5.18,15.24,4.58,10.86-1.07,22.23-8.5,20.55-18.92-1.79-11.11-12.08-19.46-23.09-20.43Z"/>
            <path class="cls-1" d="M1508.34,1429.72c1.35.75,2.85,1.19,4.47,1.06,4.38-.35,5.75-4.68,5.2-8.47-.76-5.18-4.77-10.23-10.46-10.03-2.64.09-4.9,1.52-6.6,3.45-1.93,2.19-2.18,5.48-.95,8.06,1.49,3.13,4.66,6.01,8.34,5.94Z"/>
            <path class="cls-1" d="M1369.19,1526.48c-.87,0-1.71.1-2.55.24-6.87-.29-7.43,6.86-3.51,10.92,1.72,1.78,3.93,3.26,6.4,3.4,3.35.19,5-2.11,6.06-4.75.33-.81.6-1.65.85-2.46,1.23-4.01-3.86-7.3-7.24-7.34Z"/>
            <path class="cls-1" d="M1478.15,1406.71c-4.97-4.68-17.62-8.49-22.5-1.67-3.47,4.85-.76,11.77,3.02,15.56,2.23,2.23,5.33,3.81,8.54,3.68.16,0,.3-.04.45-.06,2.88.85,6.13.55,9.13-1.37,5.94-3.8,6.44-11.36,1.35-16.15Z"/>
            <path class="cls-1" d="M1481,1524.73c-2.41.87-4.17,3.67-3.81,6.24.39,2.74,3.13,4.57,5.79,4.53.09,0,.17-.02.26-.02,1.92.53,4.05.41,5.53-.87,2.41-2.08,1.95-5.45-.02-7.64-1.83-2.04-5.09-3.2-7.75-2.24Z"/>
            <path class="cls-1" d="M1543.47,1525.9c-4.66.09-1.26,6.28,2.26,6.21.1,0,.17-.02.26-.03.67-.68,1.33-1.37,2-2.05-.21-1.82-2.33-4.17-4.51-4.13Z"/>
            <path class="cls-1" d="M1040.22,1626.42c-6.01-.37-11.79,1.18-15.07,5.14-3,3.62-4.35,8.84-4.27,13.49-.03,11.38,5.12,22.42,18.24,20.78,10.96-1.36,20.94-10.09,22.32-21.26,1.3-10.48-10.33-17.48-21.22-18.16Z"/>
            <path class="cls-1" d="M1078.47,1716.02c-.78-.03-1.5.2-2.14.59-1.77.03-3.25,1.47-3.92,3.01-.55,1.27-.37,2.85.6,3.87.86.9,1.97,1.55,3.24,1.55,2.74,0,4.59-2.51,4.86-5.02.2-1.84-.54-3.9-2.66-3.99Z"/>
            <path class="cls-1" d="M1565.07,1411.02c.85.11,1.69.19,2.56.15,3.38-.16,8.35-3.64,6.97-7.6-.28-.8-.58-1.63-.94-2.43-1.16-2.6-2.89-4.84-6.23-4.53-2.46.23-4.62,1.79-6.26,3.63-3.76,4.2-2.95,11.32,3.91,10.78Z"/>
            <path class="cls-1" d="M1082.29,1682.66c-2.04.04-3.89,3.71-1.18,3.66,2.04-.04,3.89-3.71,1.18-3.66Z"/>
            <path class="cls-1" d="M1242.98,1535.59c-4.01-3.28-9.98-3.82-13.44.59-2.12,2.71-2.15,6.48-1.06,9.81,0,.15-.02.3-.02.45.15,4.67,3.6,9.35,8.45,9.8,4.56.43,9.34-2.9,10.67-7.22,1.46-4.75-.86-10.38-4.59-13.44Z"/>
            <path class="cls-1" d="M1236.88,1509.1c-.09-3.1-5.68-5.83-5.56-1.73.09,3.09,5.68,5.83,5.56,1.73Z"/>
            <path class="cls-1" d="M1253.86,1662.24c-9.74-.85-13.25,7.45-12.92,15.86.06,3.44,1.2,7.26,3.52,9.86,2.53,2.84,6.85,3.83,11.28,3.39,8.04-.79,16.44-6.29,15.2-14-1.33-8.22-8.94-14.4-17.08-15.11Z"/>
            <path class="cls-1" d="M1322.37,1566.1c-1.96.07-3.62,1.12-4.89,2.55-1.43,1.62-1.61,4.06-.7,5.97,1.1,2.32,3.45,4.45,6.17,4.39,1,.56,2.11.88,3.31.78,3.24-.26,4.26-3.47,3.85-6.27-.56-3.83-3.53-7.57-7.74-7.42Z"/>
            <path class="cls-1" d="M1122.3,1702.25c-.64,0-1.27.08-1.89.18-5.09-.21-5.5,5.08-2.6,8.08,1.27,1.32,2.91,2.41,4.73,2.51,2.48.14,3.7-1.56,4.49-3.52.24-.6.44-1.22.63-1.82.91-2.97-2.86-5.4-5.36-5.43Z"/>
            <path class="cls-1" d="M1215.83,1457.23c-3.4-5.2-10.06-5.56-14.23-1.04-4.08,4.42-7.31,15.59-1.26,19.83,4.3,3.01,10.37.56,13.67-2.8,1.94-1.98,3.31-4.73,3.16-7.56,0-.14-.04-.26-.05-.4.72-2.55.43-5.41-1.29-8.03Z"/>
            <path class="cls-1" d="M1187.68,1695.2c-3.57,1.29-6.18,5.43-5.64,9.24.58,4.05,4.64,6.76,8.56,6.7.13,0,.25-.02.38-.03,2.84.78,6,.61,8.19-1.28,3.57-3.08,2.88-8.07-.04-11.3-2.72-3.01-7.53-4.74-11.46-3.32Z"/>
            <path class="cls-1" d="M1025.14,1723.52c-3.65-2.15-7.52-2.36-10.91-1.23-.18-.01-.35-.05-.54-.05-3.82-.02-7.44,2-9.99,4.74-4.33,4.67-7.25,13.01-2.91,18.62,6.1,7.9,20.96,2.82,26.67-2.96,5.84-5.91,4.91-14.87-2.31-19.13Z"/>
            <path class="cls-1" d="M581.8,1723.43c-.93-.04-1.78.24-2.54.7-2.11.03-3.87,1.75-4.66,3.58-.65,1.5-.44,3.39.71,4.6,1.02,1.07,2.34,1.84,3.86,1.84,3.26,0,5.46-2.99,5.78-5.97.24-2.18-.64-4.64-3.16-4.75Z"/>
            <path class="cls-1" d="M586.35,1683.76c-2.43.04-4.63,4.41-1.4,4.35,2.43-.04,4.63-4.41,1.4-4.35Z"/>
            <path class="cls-1" d="M832.44,1736.56c-11.58-1.01-15.76,8.86-15.36,18.86.08,4.09,1.43,8.63,4.19,11.72,3.01,3.37,8.15,4.55,13.41,4.03,9.56-.94,19.55-7.48,18.08-16.65-1.58-9.78-10.63-17.13-20.31-17.97Z"/>
            <path class="cls-1" d="M633.92,1707.06c-.76,0-1.51.09-2.25.21-6.05-.25-6.53,6.04-3.09,9.6,1.51,1.56,3.45,2.87,5.62,2.99,2.95.17,4.4-1.86,5.34-4.18.29-.71.53-1.46.75-2.17,1.08-3.53-3.4-6.43-6.37-6.45Z"/>
            <path class="cls-1" d="M711.66,1698.68c-4.25,1.53-7.34,6.46-6.7,10.99.68,4.82,5.52,8.04,10.18,7.97.15,0,.3-.03.45-.04,3.38.93,7.13.72,9.74-1.53,4.25-3.66,3.42-9.59-.04-13.44-3.23-3.58-8.96-5.63-13.63-3.95Z"/>
          </g>
        </g>
      </g>
    </g>
  </g>
</svg>