<?xml version="1.0" encoding="UTF-8"?>
<svg id="Layer_2" data-name="Layer 2" xmlns="http://www.w3.org/2000/svg" xmlns:xlink="http://www.w3.org/1999/xlink" viewBox="0 0 1635 1728">
  <defs>
    <style>
      .cls-1 {
        fill: url(#linear-gradient);
      }
    </style>
    <linearGradient id="linear-gradient" x1="2206.71" y1="-896.09" x2="-436.82" y2="2453.19" gradientUnits="userSpaceOnUse">
      <stop offset="0" stop-color="#e1e267"/>
      <stop offset="1" stop-color="#1ea350"/>
    </linearGradient>
  </defs>
  <g id="Layer_1-2" data-name="Layer 1">
    <path class="cls-1" d="M817.5,0c-12.39,0-24.71.3-36.97.88-5.39,14.1-19.04,24.12-35.03,24.12-13.59,0-25.49-7.23-32.07-18.05-35.87,4.82-71.02,12.09-105.28,21.66,9.01,28.65-11.28,66.63-48.62,58.21-17.83-4.72-27.61-17.26-30.73-31.39C219.78,178.74,0,494.24,0,864c0,477.17,366.01,864,817.5,864s817.5-386.83,817.5-864S1268.99,0,817.5,0ZM723.87,148.77c97.22,25.47,65.57,169.57-32.36,147.4-96.98-24.14-64.8-170.71,32.36-147.4ZM632.42,359.33c124,32.72,80.97,227.96-43.99,199.71-123.72-30.92-79.97-229.52,43.99-199.71ZM424.73,205.21c14.77-65.63,109.58-42.46,95.36,23.36-15.64,65.88-108.82,42.99-95.36-23.36ZM1167.37,1400.97c-11.76-7.12-25.55-11.22-40.3-11.22-37.91,0-69.49,27.08-76.48,62.95-1.4.46-2.8.92-4.2,1.38-9.81-4.45-20.69-6.95-32.16-6.95-22.7,0-43.13,9.71-57.38,25.2-14.24-15.49-34.67-25.2-57.38-25.2-25.56,0-48.24,12.3-62.46,31.31-3.65-.39-7.3-.83-10.95-1.32-14.26-18.25-36.47-30-61.42-30-6.48,0-12.76.8-18.78,2.29-35.83-50.08,54.38-175.68,76.39-156.22,458.45,122.87,705.56-375.14,591.98-593.15-159.47,130.5-271.87,56.88-447.29,96.42-164.04,40.49-270.39,200.1-253.49,397.11.41,4.75,6.53,5.96,8.48,1.64,65.01-143.47,330.62-165.42,481.17-250.69,42.87-24.28,70.77-38.59,19.11,11.63-144.37,141.62-400.42,114.89-514.87,330.56-35.35,41.8-56.54-11.11-79.91-36.63-74.55-89.43-186.48-81.72-224.11-204.73-8.13-22.55,2.93-14.49,11.31-2.97,58.74,80.59,164.1,91.19,190.48,141.48,2.13,4.06,7.85,2.97,8.42-1.63,18.73-152.7-184.79-170.07-240.89-298.83-2.7-6.23-11.19-6.08-13.88.16-71.03,161.36-32.34,385.5,186.43,381.73,18.2.86,78.78,27.02,96.91,94.55,9.58,35.6-23.68,67.32-56.14,54.49-12.28-26.9-39.4-45.61-70.91-45.61-4.88,0-9.64.47-14.27,1.33-4.57-2.78-9.1-5.61-13.59-8.48-11.13-18.49-29.72-31.97-51.61-36.3-5.2-4-10.33-8.08-15.41-12.22-4.81-36.61-35.01-65.2-72.34-67.52-6.51-6.95-12.89-14.02-19.14-21.22-2.49-23.17-18.71-42.75-40.73-51.23-128.16-176.23-182.2-408.73-131.32-639.45,10.35-46.99,24.61-92,42.34-134.64,4.86-11.67,20.26-12.7,26.55-1.82,35.29,65.63,164.72,244.76,337.2,273.17,227.54,42.59,407.06-215.65,741.24-166.66,508.11,99.95,251.63,682.04-136.6,897.29Z"/>
  </g>
</svg>